<?xml version="1.0" encoding="utf-8"?>
<!-- Generator: Adobe Illustrator 23.0.3, SVG Export Plug-In . SVG Version: 6.00 Build 0)  -->
<svg version="1.1" id="Calque_1" xmlns="http://www.w3.org/2000/svg" xmlns:xlink="http://www.w3.org/1999/xlink" x="0px" y="0px"
	 width="600px" height="624.1869507px" viewBox="0 0 600 624.1869507" style="enable-background:new 0 0 600 624.1869507;"
	 xml:space="preserve">
<linearGradient id="SVGID_1_" gradientUnits="userSpaceOnUse" x1="290.1089172" y1="0" x2="290.1089172" y2="600.9098511">
	<stop  offset="0.7292671" style="stop-color:#0077B7"/>
	<stop  offset="0.994382" style="stop-color:#223580"/>
</linearGradient>
<path style="fill:url(#SVGID_1_);" d="M579.0360718,455.7257996l-26.5441895-136.1049805H333.9720459v-49.516571
	c-4.6247253-0.5638428-9.1739197-1.1655273-13.7233887-1.7669983v-126.743103h29.664917V86.2873383h-71.4362793
	l53.7651672-10.4897766l1.7295837-0.3384781V47.8246078l-1.7295837,0.3384819L136.9958191,86.2873383h-29.4769669v5.7526093
	l-12.1440964,2.3686981v-8.1213074h-6.391716c14.324852-7.7825928,24.0628433-22.9723549,24.0628433-40.3802681
	C113.0458832,20.6036568,92.4420013,0,67.1009521,0s-45.944706,20.6036568-45.944706,45.9070702
	c0,17.4079132,9.7377663,32.5976753,24.0626144,40.3802681h-7.369072v22.3332443
	c-26.8826942,14.024231-42.6362877,44.6288681-36.5454216,75.7977982l31.5071831,161.3707428h34.2517662l-2.2557907-11.6176453
	h17.1823349c-3.346283,4.1733093-6.2788086,8.0834351-8.7604065,11.6176453h228.0698853v229.2354126l227.2799988-44.3658447
	C563.0569458,523.9287109,585.7660522,490.2033691,579.0360718,455.7257996z M28.6758556,45.9070702
	c0-21.2053547,17.2199726-38.3874588,38.4250946-38.3874588c21.2053528,0,38.4253235,17.182106,38.4253235,38.3874588
	c0,21.2429848-17.2199707,38.4253273-38.4253235,38.4253273C45.8958282,84.3323975,28.6758556,67.1500549,28.6758556,45.9070702z
	 M87.8551483,326.6518555H45.3694V93.8069458h42.4857483V326.6518555z M164.8935089,108.4702759l6.8805084-1.3534775v163.2882996
	c-2.3310547,0.7520142-4.6244812,1.579071-6.8805084,2.4437561V108.4702759z M103.4584274,311.2741699
	c-1.4287415,1.3158264-2.8198547,2.631897-4.1735535,3.9477234c-1.3534775,1.3160706-2.6693192,2.6319275-3.9101181,3.9477539
	V122.0054855l12.1440964-2.3686981v159.7166748c0,8.5346069,1.7672272,16.6935425,4.9629669,24.0626221
	C109.3237152,306.0103455,106.3156891,308.6422424,103.4584274,311.2741699z M221.6290588,279.3534546
	c0,29.326416-23.9875641,53.2763672-53.3139954,53.2763672c-0.9025421,0-1.8424988-0.0376282-2.744812-0.0752869
	c-0.6767426-0.037384-1.3911133-0.0750122-2.0678558-0.1502991c-0.4887848-0.0376282-0.9775848-0.0752563-1.4287415-0.1502991
	c-1.6543274-0.1881714-3.2710114-0.4511719-4.8500671-0.7896423c-0.7519989-0.1503296-1.4663696-0.338501-2.1807404-0.5264282
	c-3.6469116-0.9399414-7.1811371-2.2557983-10.4897766-3.9477539c-1.1281281-0.5640564-2.2183838-1.1655273-3.3086548-1.8046265
	c-0.5640564-0.338501-1.1278839-0.6767578-1.6543121-1.0528564c-0.5640717-0.3006287-1.0904999-0.6767578-1.6543274-1.090271
	c-1.0904846-0.7520142-2.1431122-1.5416565-3.1583405-2.3686829c-0.9775848-0.7896423-1.9175415-1.6166992-2.8574829-2.5190125
	c-0.0750427-0.0376282-0.1503143-0.112915-0.2255859-0.1881714c-1.8422699-1.7669983-3.6092682-3.6845398-5.1885452-5.7147522
	c-0.8270493-1.0152283-1.5790558-2.0678406-2.3310623-3.1583252c-0.6767349-1.0150146-1.3158417-2.0302124-1.917305-3.0830688
	c-0.1129074-0.1503296-0.1881714-0.3006287-0.3008499-0.4511719c-0.564064-1.0526123-1.1278992-2.0678406-1.6543198-3.1581116
	c-0.0376358-0.0752563-0.0752716-0.1128845-0.0752716-0.1879272c-0.5264282-1.1281433-1.0149918-2.2560425-1.4663773-3.4215698
	c-0.0750427-0.0752563-0.0750427-0.1502991-0.1126785-0.2255554c-0.0376358-0.0376587-0.0376358-0.0752869-0.0376358-0.1503296
	c-0.2255783-0.5640564-0.4511566-1.1281128-0.6390991-1.7295837c-0.4887924-1.3158264-0.9023209-2.6695557-1.240799-4.0606689
	c-0.1879501-0.6767273-0.3758926-1.3910828-0.4887924-2.1054688c-0.1126785-0.4888-0.2255859-0.9775696-0.3008499-1.466156
	c-0.1503143-0.7519836-0.2629852-1.4663696-0.3758926-2.2183838c-0.3384781-2.4439697-0.5264282-4.9253235-0.5264282-7.4819641
	V93.8069458h42.3354416V288.226532c0,6.0155945,4.9253387,10.940918,10.9411621,10.940918
	c6.0532227,0,10.9785614-4.9253235,10.9785614-10.940918V93.8069458h42.335434V279.3534546z M262.6860657,262.058197
	c-4.2485962-0.26297-8.4971924-0.4887695-12.7834167-0.6390991c-6.8428802-0.2632141-13.7231598-0.3008423-20.7539673-0.1502991
	V95.9124298l3.9101105-0.7517776v46.4334946h29.6272736V262.058197z M312.7290649,326.6518555h-42.5233765V134.0745392h-29.6272888
	V93.8069458h101.8155823v40.2675934h-29.664917V326.6518555z M392.286438,440.2730408l6.2037659-14.2872009l6.2411804,14.2872009
	H392.286438z M108.0076447,555.3982544c5.9405594,30.3792725,35.6431122,50.3814697,66.022171,44.4785767l122.193634-23.8372803
	v-225.137146H68.078537L108.0076447,555.3982544z"/>
<linearGradient id="SVGID_2_" gradientUnits="userSpaceOnUse" x1="67.1010666" y1="84.3323975" x2="67.1010666" y2="7.5196095">
	<stop  offset="0" style="stop-color:#FFFFFF"/>
	<stop  offset="0.0489921" style="stop-color:#FFFEF5"/>
	<stop  offset="0.1334042" style="stop-color:#FFFBD9"/>
	<stop  offset="0.2430885" style="stop-color:#FFF6AC"/>
	<stop  offset="0.3723701" style="stop-color:#FFF06E"/>
	<stop  offset="0.4557122" style="stop-color:#FFEB42"/>
	<stop  offset="1" style="stop-color:#FCA62E"/>
</linearGradient>
<path style="fill:url(#SVGID_2_);" d="M105.5262756,45.9070702c0,21.2429848-17.2199707,38.4253273-38.4253235,38.4253273
	c-21.2051239,0-38.4250946-17.1823425-38.4250946-38.4253273c0-21.2053547,17.2199726-38.3874588,38.4250946-38.3874588
	C88.3063049,7.5196095,105.5262756,24.7017155,105.5262756,45.9070702z"/>
<linearGradient id="SVGID_3_" gradientUnits="userSpaceOnUse" x1="193.8816833" y1="93.8069458" x2="193.8816833" y2="332.6298218">
	<stop  offset="0" style="stop-color:#FFFFFF"/>
	<stop  offset="0.0489921" style="stop-color:#FFFEF5"/>
	<stop  offset="0.1334042" style="stop-color:#FFFBD9"/>
	<stop  offset="0.2430885" style="stop-color:#FFF6AC"/>
	<stop  offset="0.3723701" style="stop-color:#FFF06E"/>
	<stop  offset="0.4557122" style="stop-color:#FFEB42"/>
	<stop  offset="1" style="stop-color:#FCA62E"/>
</linearGradient>
<path style="fill:url(#SVGID_3_);" d="M45.3694,326.6518555h42.4857483V93.8069458H45.3694V326.6518555z M240.5783997,93.8069458
	v40.2675934h29.6272888v192.5773163h42.5233765V134.0745392h29.664917V93.8069458H240.5783997z M179.2936249,288.226532
	c0,6.0155945-4.9253387,10.940918-10.9785614,10.940918c-6.0158234,0-10.9411621-4.9253235-10.9411621-10.940918V93.8069458
	h-42.3354416v185.5465088c0,2.5566406,0.1879501,5.0379944,0.5264282,7.4819641
	c0.1129074,0.7520142,0.2255783,1.4664001,0.3758926,2.2183838c0.075264,0.4885864,0.1881714,0.977356,0.3008499,1.466156
	c0.1128998,0.714386,0.3008423,1.4287415,0.4887924,2.1054688c0.3384781,1.3911133,0.7520065,2.7448425,1.240799,4.0606689
	c0.1879425,0.6014709,0.4135208,1.1655273,0.6390991,1.7295837c0,0.0750427,0,0.1126709,0.0376358,0.1503296
	c0.0376358,0.0752563,0.0376358,0.1502991,0.1126785,0.2255554c0.4513855,1.1655273,0.939949,2.2934265,1.4663773,3.4215698
	c0,0.0750427,0.0376358,0.1126709,0.0752716,0.1879272c0.5264206,1.090271,1.0902557,2.1054993,1.6543198,3.1581116
	c0.1126785,0.1505432,0.1879425,0.3008423,0.3008499,0.4511719c0.6014633,1.0528564,1.2405701,2.0680542,1.917305,3.0830688
	c0.7520065,1.0904846,1.5040131,2.1430969,2.3310623,3.1583252c1.579277,2.0302124,3.3462753,3.9477539,5.1885452,5.7147522
	c0.0752716,0.0752563,0.1505432,0.1505432,0.2255859,0.1881714c0.9399414,0.9023132,1.8798981,1.7293701,2.8574829,2.5190125
	c1.0152283,0.8270264,2.0678558,1.6166687,3.1583405,2.3686829c0.5638275,0.4135132,1.0902557,0.7896423,1.6543274,1.090271
	c0.5264282,0.3760986,1.0902557,0.7143555,1.6543121,1.0528564c1.090271,0.6390991,2.1805267,1.2405701,3.3086548,1.8046265
	c3.3086395,1.6919556,6.842865,3.0078125,10.4897766,3.9477539c0.7143707,0.1879272,1.4287415,0.3760986,2.1807404,0.5264282
	c1.5790558,0.3384705,3.1957397,0.6014709,4.8500671,0.7896423c0.4511566,0.0750427,0.9399567,0.1126709,1.4287415,0.1502991
	c0.6767426,0.0752869,1.3911133,0.112915,2.0678558,0.1502991c0.9023132,0.0376587,1.8422699,0.0752869,2.744812,0.0752869
	c29.3264313,0,53.3139954-23.9499512,53.3139954-53.2763672V93.8069458h-42.335434V288.226532z"/>
<path style="fill:#0077B7;" d="M598.6998291,465.2758484l-28.4241333-145.6550293h-17.7838135l26.5441895,136.1049805
	c6.7299805,34.4775696-15.979126,68.2029114-50.4567261,74.9328918l-227.2799988,44.3658447v20.0019531l241.830658-47.2231445
	C581.1039429,540.3966675,606.1067505,503.2497864,598.6998291,465.2758484z M108.0076447,555.3982544L68.078537,350.9024048
	H33.789135l42.2601662,216.4143677c7.4069366,37.9741821,44.5161972,62.9767456,82.4901276,55.5700073l137.684021-26.8826904
	v-19.9645386l-122.193634,23.8372803C143.6507568,605.7797241,113.948204,585.7775269,108.0076447,555.3982544z"/>
<path style="fill:#FFFFFF;" d="M328.5202942,504.3026428c-6.2788086,0-8.7227783-5.7902527-8.7604065-11.3547058
	c0-5.6020508,2.631897-11.6178894,8.7604065-11.6178894c2.2181396,0,4.4741821,1.0152283,6.128479,3.1583557l3.1957703-4.0606689
	c-2.5942993-3.4213257-5.8652954-5.1132812-9.3242493-5.1132812c-9.1739502,0-13.4978027,8.8730774-13.4601746,17.6334839
	c0.0376282,8.7227783,4.0230103,17.2950134,13.4601746,17.2950134c3.6845398,0,7.0684509-1.5790405,9.6627197-5.0003662
	l-3.2710266-4.3615112C333.2576904,503.0994568,330.7384338,504.3026428,328.5202942,504.3026428z M333.1447754,453.2444153
	c4.8126526,0,9.2868347-1.6166687,12.7081604-5.0006104l-4.2862244-4.3612671
	c-2.2181702,2.2181702-5.4891663,3.4213257-8.421936,3.4213257c-8.2716064,0-11.5050049-5.7900085-11.5426331-11.3546753
	c-0.0376282-5.6020813,3.459198-11.6176758,11.5426331-11.6176758c2.9327698,0,5.8652954,1.0152283,8.0836792,3.1581116
	l4.210968-4.0604248c-3.4589539-3.4215393-7.7452087-5.1135254-12.2946472-5.1135254
	c-12.1064758,0-17.7838135,8.8733215-17.7461548,17.6335144
	C315.4360046,444.6719666,320.6998291,453.2444153,333.1447754,453.2444153z M357.809082,490.1280823h-12.4825745v-14.0992432
	h-4.7748108v33.4997559h4.7748108v-13.5728455h12.4825745v13.5728455h4.7750244v-33.4997559h-4.7750244V490.1280823z
	 M330.4752197,379.1009521h9.2492065l14.888916,17.0696716h11.4673462v-0.6767578l-15.4527283-17.4078979
	c9.7001343-1.9928284,12.8960876-9.0612793,12.8960876-16.0544434c0-8.8354492-6.3540649-16.8815002-18.385498-16.9567566
	c-8.1210632,0-16.2047424-0.0752869-24.2884216-0.0752869v51.1711426h9.6250916V379.1009521z M330.4752197,354.0607605h14.6633301
	c6.0532532,0,8.7604065,4.098053,8.7604065,8.1586914c0,4.0982971-2.631897,8.1963501-8.7604065,8.1963501h-14.6633301V354.0607605z
	 M378.0368652,452.4924011v-33.4623413h-6.2788086v14.0992737h-16.4679871v-14.0992737h-6.3164368v33.4623413h6.3164368v-13.5351868
	h16.4679871v13.5351868H378.0368652z M375.5178528,475.9535522l-11.392334,33.5h5.1885681l2.1807556-6.3166809h13.2719727
	l2.1431274,6.3166809h5.2261658l-11.3920898-33.5H375.5178528z M373.4123535,497.2715759l4.6997681-14.2495728l4.7373962,14.2495728
	H373.4123535z M408.1152954,386.6958313H379.427948v-11.5426331h27.6347046v-8.9859924H379.427948v-11.7305603h28.6873474
	v-9.3618774h-38.2371521v51.0958557h38.2371521V386.6958313z M415.1837463,487.0826721
	c0-5.7902527-3.1583557-11.053833-9.1362915-11.1291199c-4.0230408,0-8.0836792-0.0376282-12.1066895-0.0376282v33.5376282
	h4.8126526v-11.166748h4.586853l7.4069214,11.166748h5.7149963v-0.4137573l-7.7077942-11.429718
	C413.6046753,496.29422,415.1837463,491.6695251,415.1837463,487.0826721z M398.753418,492.5718384v-10.7153625h7.2940369
	c3.007782,0,4.3612671,2.6695557,4.3612671,5.3388672c0,2.7071838-1.3158569,5.3764954-4.3612671,5.3764954H398.753418z
	 M395.0688782,418.9550171l-15.0392151,33.4997559h6.8426514l2.8951111-6.3164368h17.4831848l2.8198547,6.3164368h6.9179077
	l-15.0392151-33.4997559H395.0688782z M392.286438,440.2730408l6.2037659-14.2872009l6.2411804,14.2872009H392.286438z
	 M425.1847229,345.0747681h-9.5874634v51.0958557h9.5874634V345.0747681z M422.8536682,475.9535522h-4.812439v33.5h17.896698
	v-5.8278809h-13.084259V475.9535522z M419.8458557,418.9550171v33.4997559h23.536438v-5.8276367H426.162323v-27.6721191H419.8458557
	z M438.8704529,509.4535522h19.0246277v-6.2037659h-14.2872314v-7.557251h13.7608032v-5.9029236h-13.7608032v-7.70755h14.2872314
	v-6.1285095h-19.0246277V509.4535522z M462.1060181,418.3156738c-11.5800171,0-17.2197266,8.8356934-17.2197266,17.6335144
	c0,8.7980347,5.4515381,17.2952271,17.2197266,17.2952271c11.768219,0,17.0696716-8.6851196,17.1823425-17.3326416
	C479.3636475,427.1513672,473.6486511,418.3156738,462.1060181,418.3156738z M462.1060181,447.4541626
	c-7.8954773,0-10.8656616-5.9026794-11.0161743-11.3920898c-0.1126709-5.639679,3.120697-12.0314026,11.0161743-12.0314026
	c7.895752,0,11.0538635,6.3164368,10.9411621,11.9561462C472.9719238,441.513855,470.00177,447.4541626,462.1060181,447.4541626z
	 M472.8966675,502.0466003l-7.6322937-26.0930481h-5.3764954l10.565033,33.6502991h4.9629822l10.565033-33.6502991h-5.3764954
	L472.8966675,502.0466003z M443.9086914,359.0987549l16.2798157,22.2582092h1.8798828l16.6561584-22.1829224v37.0716248h9.6250916
	v-51.0956421h-11.0162048l-15.979187,21.9947815l-15.9791565-21.9947815h-11.0914612v51.0956421h9.625061V359.0987549z
	 M488.612854,509.4535522h4.7371521v-33.5h-4.7371521V509.4535522z M483.9130859,452.4547729h6.3164368v-22.5964661
	l17.6335144,22.5964661h3.9100952v-33.537384h-6.3164368v20.8292236l-16.3927002-20.7915955h-5.1509094V452.4547729z
	 M502.2983704,475.9535522h-4.812439v33.5h17.8590393v-5.8278809h-13.0466003V475.9535522z M523.1652222,475.9535522h-4.812439v33.5
	h17.8967285v-5.8278809h-13.0842896V475.9535522z M516.8864136,388.8765869c-6.2035522,0-12.1064453-2.4815979-14.400116-8.1213074
	l-8.0081787,4.1735535c3.7972107,9.3242493,11.8056335,12.5576172,22.2579651,12.5576172
	c11.3920898,0,21.4309692-4.8876953,21.4309692-16.2800293c0-12.1817322-9.8883057-14.9639282-20.5662842-16.2797852
	c-6.128479-0.7143555-11.3920593-1.9551697-11.3920593-6.3916931c0-3.7974548,3.4589539-6.8052368,10.6026917-6.8052368
	c5.5267944,0,10.3394165,2.782196,12.1064453,5.6773376l7.6699219-3.9103394
	c-3.8724976-7.8955078-12.1064453-10.1515198-20.0772705-10.1515198
	c-9.3994751,0.0752563-19.7765808,4.3614807-19.7765808,14.8888855c0,11.4297485,9.6250916,14.2121887,20.0774841,15.4527588
	c6.7675781,0.7520142,11.805603,2.7071838,11.805603,7.5195923
	C528.6170044,386.7710876,522.9396362,388.8765869,516.8864136,388.8765869z M544.3706055,442.6417542
	c0-7.9707642-6.5043945-9.8130493-13.4976196-10.6403198c-4.0230103-0.4888-7.4819336-1.3158569-7.4819336-4.210968
	c0-2.5190125,2.2557983-4.4741821,6.9555054-4.4741821c3.6469116,0,6.8052368,1.8046265,7.9331665,3.722168l5.038208-2.5566406
	c-2.5566406-5.1885376-7.9333496-6.6546936-13.1593018-6.6546936c-6.1661377,0.0374146-12.9713745,2.8572693-12.9713745,9.7377625
	c0,7.5196228,6.3164673,9.3618774,13.1593018,10.1515198c4.4365845,0.4888,7.7452393,1.7669983,7.7452393,4.925354
	c0,3.6468811-3.722168,5.0379944-7.7075806,5.0379944c-4.0606689,0-7.9331055-1.6166687-9.3995361-5.3012085l-5.2637939,2.7071838
	c2.4816284,6.1282654,7.7451782,8.2337341,14.5880737,8.2337341
	C537.7532959,453.319458,544.3706055,450.1237183,544.3706055,442.6417542z M558.206604,482.0820618v-6.1285095h-19.0245972v33.5
	h19.0245972v-6.2037659h-14.2871704v-7.557251h13.7609863v-5.9029236h-13.7609863v-7.70755H558.206604z"/>
<path style="fill:#0077B7;" d="M569.5236816,315.8609924H337.731842v-45.2679443
	c40.9817505,4.9629517,86.0617676,8.7227783,143.9252319,1.1278992c2.8951111-0.375885,5.8276367-0.7894287,8.7980347-1.2405701
	c2.2557983-0.338501,4.5492249-0.6769714,6.8802795-1.0528564c1.8424988-0.3008728,3.6847534-0.6014709,5.5646667-0.9399719
	c2.3686829-0.375885,4.7747803-0.8270264,7.1811218-1.2407837c5.0006104-0.9399719,10.0762329-1.9549561,15.2271729-3.0454407
	c2.5942383-0.5261841,5.1508789-1.090271,7.7828369-1.6919556c2.5942383-0.5261841,5.2261353-1.1655273,7.8956909-1.8046265
	L507.6748352,90.1224136c-5.0379944-25.7545776-30.2287292-42.7113304-55.9458923-37.6733208L337.731842,74.7073059V47.0726013
	l103.6952515-20.2277699c37.9741821-7.4067059,75.1210632,17.5958576,82.5278015,55.5700226l33.7255249,172.7630768
	l0.2630005,1.3158417L569.5236816,315.8609924z"/>
<linearGradient id="SVGID_4_" gradientUnits="userSpaceOnUse" x1="302.8972168" y1="51.5626831" x2="302.8972168" y2="345.7891235">
	<stop  offset="0" style="stop-color:#B9D9EB"/>
	<stop  offset="0.0888197" style="stop-color:#AFD4E8"/>
	<stop  offset="0.2418188" style="stop-color:#93C6E1"/>
	<stop  offset="0.4405402" style="stop-color:#66AFD4"/>
	<stop  offset="0.6750794" style="stop-color:#2890C4"/>
	<stop  offset="0.6953989" style="stop-color:#228DC2"/>
	<stop  offset="1" style="stop-color:#0077B7"/>
</linearGradient>
<path style="fill:url(#SVGID_4_);" d="M507.6748352,90.1224136c-5.0379944-25.7545776-30.2287292-42.7113304-55.9458923-37.6733208
	L337.731842,74.7073059v11.5800323h12.1817322v55.3068085H337.731842v128.9989014
	c40.9817505,4.9629517,86.0617676,8.7227783,143.9252319,1.1278992c2.8951111-0.375885,5.8276367-0.7894287,8.7980347-1.2405701
	c2.2557983-0.338501,4.5492249-0.6769714,6.8802795-1.0528564c1.8424988-0.3008728,3.6847534-0.6014709,5.5646667-0.9399719
	c2.3686829-0.375885,4.7747803-0.8270264,7.1811218-1.2407837c5.0006104-0.9399719,10.0762329-1.9549561,15.2271729-3.0454407
	c2.5942383-0.5261841,5.1508789-1.090271,7.7828369-1.6919556c2.5942383-0.5638428,5.2261353-1.1655273,7.8956909-1.8046265
	L507.6748352,90.1224136z M320.2486572,141.5941467v126.743103c4.549469,0.6014709,9.0986633,1.2031555,13.7233887,1.7669983
	V141.5941467H320.2486572z M332.2424622,75.7975616l-53.7651672,10.4897766h55.494751V75.4590836L332.2424622,75.7975616z
	 M233.0587921,141.5941467V95.1606522l-3.9101105,0.7517776v165.356369
	c7.0308075-0.1505432,13.911087-0.112915,20.7539673,0.1502991c4.2862244,0.1503296,8.5348206,0.3761292,12.7834167,0.6390991
	V141.5941467H233.0587921z M164.8935089,108.4702759v164.3785706c2.2560272-0.8646851,4.5494537-1.6917419,6.8805084-2.4437561
	V107.1167984L164.8935089,108.4702759z M107.5188522,279.3534546V119.6367874l-12.1440964,2.3686981v197.1641541
	c1.240799-1.3158264,2.5566406-2.6316833,3.9101181-3.9477539c1.3536987-1.3158264,2.744812-2.631897,4.1735535-3.9477234
	c2.8572617-2.6319275,5.8652878-5.2638245,9.0233917-7.8580933
	C109.2860794,296.0469971,107.5188522,287.8880615,107.5188522,279.3534546z M64.8075256,334.1714783l2.2557907,11.6176453
	h6.1661377c2.4815979-3.5342102,5.4141235-7.4443359,8.7604065-11.6176453H64.8075256z"/>
<polygon style="fill:#0077B7;" points="404.7313843,440.2730408 392.286438,440.2730408 398.4902039,425.9858398 "/>
</svg>
