<svg xmlns="http://www.w3.org/2000/svg" width="600" height="599.999" viewBox="0 0 600 599.999"><path d="M156.138 210.073v2.174h285.011v-2.174H156.138zm0 10.87h285.011v-2.174H156.138v2.174zm0 101.832h285.011V320.6H156.138v2.175zm0 8.696h285.011v-2.174H156.138v2.174zm0 49.279h285.011v-2.174H156.138v2.174zm0 8.696h285.011v-2.174H156.138v2.174zm0 49.279h285.011v-2.175H156.138v2.175z" fill="#2b2b2b"/><linearGradient id="a" gradientUnits="userSpaceOnUse" x1="298.27" y1="379.28" x2="298.27" y2="335.188"><stop offset="0" stop-color="#fff" stop-opacity="0"/><stop offset="1"/></linearGradient><path d="M164.88 335.188c-4.871 0-8.836 3.966-8.836 8.837v26.418c0 4.871 3.965 8.837 8.837 8.837 4.873 0 8.837-3.966 8.837-8.837v-26.418c0-4.871-3.964-8.837-8.837-8.837zm5.94 35.255a5.945 5.945 0 0 1-5.94 5.939 5.945 5.945 0 0 1-5.937-5.94v-26.417a5.945 5.945 0 0 1 5.938-5.939 5.945 5.945 0 0 1 5.939 5.94v26.417zm26.834-35.255c-4.872 0-8.836 3.966-8.836 8.837v26.418c0 4.871 3.964 8.837 8.836 8.837 4.873 0 8.838-3.966 8.838-8.837v-26.418c0-4.871-3.965-8.837-8.838-8.837zm5.94 35.255a5.945 5.945 0 0 1-5.94 5.939 5.945 5.945 0 0 1-5.937-5.94v-26.417a5.945 5.945 0 0 1 5.937-5.939 5.945 5.945 0 0 1 5.94 5.94v26.417zm27.958-35.255c-4.872 0-8.837 3.966-8.837 8.837v26.418c0 4.871 3.965 8.837 8.837 8.837s8.836-3.966 8.836-8.837v-26.418c0-4.871-3.964-8.837-8.836-8.837zm5.937 35.255c0 3.275-2.663 5.939-5.937 5.939s-5.938-2.664-5.938-5.94v-26.417c0-3.275 2.664-5.939 5.938-5.939s5.937 2.664 5.937 5.94v26.417zm26.836-35.255c-4.871 0-8.836 3.966-8.836 8.837v26.418c0 4.871 3.965 8.837 8.836 8.837s8.837-3.966 8.837-8.837v-26.418c0-4.871-3.965-8.837-8.837-8.837zm5.938 35.255c0 3.275-2.664 5.939-5.938 5.939s-5.937-2.664-5.937-5.94v-26.417c0-3.275 2.664-5.939 5.937-5.939s5.938 2.664 5.938 5.94v26.417zm28.383-35.255c-4.873 0-8.838 3.966-8.838 8.837v26.418c0 4.871 3.965 8.837 8.838 8.837 4.872 0 8.837-3.966 8.837-8.837v-26.418c0-4.871-3.965-8.837-8.837-8.837zm5.938 35.255a5.945 5.945 0 0 1-5.938 5.939 5.945 5.945 0 0 1-5.939-5.94v-26.417a5.945 5.945 0 0 1 5.94-5.939 5.945 5.945 0 0 1 5.937 5.94v26.417zm26.834-35.255c-4.871 0-8.836 3.966-8.836 8.837v26.418c0 4.871 3.965 8.837 8.836 8.837 4.874 0 8.838-3.966 8.838-8.837v-26.418c0-4.871-3.964-8.837-8.838-8.837zm5.94 35.255a5.945 5.945 0 0 1-5.94 5.939 5.945 5.945 0 0 1-5.937-5.94v-26.417a5.945 5.945 0 0 1 5.937-5.939 5.945 5.945 0 0 1 5.94 5.94v26.417zm27.96-35.255c-4.872 0-8.838 3.966-8.838 8.837v26.418c0 4.871 3.966 8.837 8.837 8.837s8.835-3.966 8.835-8.837v-26.418c0-4.871-3.963-8.837-8.835-8.837zm5.936 35.255a5.945 5.945 0 0 1-5.937 5.939 5.945 5.945 0 0 1-5.939-5.94v-26.417a5.945 5.945 0 0 1 5.94-5.939 5.945 5.945 0 0 1 5.936 5.94v26.417zm26.836-35.255c-4.872 0-8.838 3.966-8.838 8.837v26.418c0 4.871 3.966 8.837 8.838 8.837 4.871 0 8.837-3.966 8.837-8.837v-26.418c0-4.871-3.966-8.837-8.837-8.837zm5.939 35.255a5.945 5.945 0 0 1-5.94 5.939 5.945 5.945 0 0 1-5.938-5.94v-26.417a5.945 5.945 0 0 1 5.939-5.939 5.945 5.945 0 0 1 5.939 5.94v26.417zm27.631-35.255c-4.872 0-8.838 3.966-8.838 8.837v26.418c0 4.871 3.966 8.837 8.838 8.837s8.835-3.966 8.835-8.837v-26.418c0-4.871-3.963-8.837-8.835-8.837zm5.936 35.255a5.945 5.945 0 0 1-5.936 5.939 5.945 5.945 0 0 1-5.939-5.94v-26.417a5.945 5.945 0 0 1 5.94-5.939 5.945 5.945 0 0 1 5.935 5.94v26.417z" fill="url(#a)"/><path d="M156.138 276.206h17.485v-2.174h-17.485v2.174zm31.419 0h17.486v-2.174h-17.486v2.174zm32.353 0h17.486v-2.174H219.91v2.174zm34.318 0h17.484v-2.174h-17.484v2.174zm37.03 0h17.486v-2.174h-17.486v2.174zm37.216 0h17.485v-2.174h-17.485v2.174zm35.252 0h17.486v-2.174h-17.486v2.174zm31.42 0h17.486v-2.174h-17.486v2.174zm27.77 0h17.486v-2.174h-17.486v2.174zm-229.094-83.748v14.962h8.79v-14.962h-8.79zm19.59-6.473c-1.757 0-3.181 1.087-3.181 2.43 0 1.34 1.424 2.428 3.18 2.428s3.182-1.087 3.182-2.429c0-1.342-1.424-2.43-3.181-2.43zm220.009-4.134l5.732 6.152 2.124-1.976-7.828-8.397-8.028 8.382 2.095 2.005 5.905-6.166zm-220.945 99.86c-1.627 0-2.945 1.728-2.945 3.858s1.318 3.857 2.945 3.857c1.627 0 2.946-1.727 2.946-3.857s-1.319-3.857-2.946-3.857zm-22.18-95.699l2.096 2.005 5.905-6.166 5.732 6.152 2.12-1.976-7.824-8.397-8.028 8.382zm-6.667-.027c-1.756 0-3.18 1.087-3.18 2.43 0 1.34 1.424 2.428 3.18 2.428s3.182-1.087 3.182-2.429c0-1.342-1.425-2.43-3.182-2.43zm146.018 3.874h26.64v-2.899h-26.64v2.899zm-100.961-8.008l5.733 6.152 2.12-1.976-7.825-8.397-8.027 8.382 2.095 2.005 5.904-6.166zm37.101-17.878h78.411c1.218 3.218 5.421 13.16 12.088 16.262v-3.305c-4.84-3.217-8.493-11.305-9.71-14.87l-.32-.986h-82.875l-.203 1.218c-1.768 10.058-7.623 14.9-11.797 17.131v3.16c4.58-2.145 12-7.276 14.406-18.61zm-41.575 43.447h8.79v-14.962h-8.79v14.962zm-43.622 74.292c-1.627 0-2.945 1.727-2.945 3.857s1.318 3.857 2.945 3.857c1.627 0 2.946-1.727 2.946-3.857s-1.32-3.857-2.946-3.857zm248.357-74.292h8.79v-14.962h-8.79v14.962zm-267.824-21.408l2.094 2.005 5.904-6.166 5.734 6.152 2.12-1.976-7.826-8.397-8.026 8.382zm3.618 6.446v14.962h8.79v-14.962h-8.79zm96.57 0v14.962h8.79v-14.962h-8.79zm140.272-10.607l5.732 6.152 2.123-1.976-7.827-8.397-8.028 8.382 2.095 2.005 5.905-6.166zm-13.405 99.86c-1.626 0-2.945 1.728-2.945 3.858s1.319 3.857 2.945 3.857c1.627 0 2.946-1.727 2.946-3.857s-1.319-3.857-2.946-3.857zm-.35-90.868c1.756 0 3.18-1.087 3.18-2.429 0-1.342-1.424-2.43-3.18-2.43-1.758 0-3.182 1.088-3.182 2.43s1.424 2.43 3.181 2.43zm29.595 0c1.756 0 3.18-1.087 3.18-2.429 0-1.342-1.424-2.43-3.18-2.43s-3.182 1.088-3.182 2.43 1.425 2.43 3.182 2.43zm-20.315 16.577h8.79v-14.962h-8.79v14.962zm20.666 74.292c-1.627 0-2.946 1.727-2.946 3.857s1.319 3.857 2.946 3.857c1.626 0 2.945-1.727 2.945-3.857s-1.319-3.857-2.945-3.857zm-51.542-95.7l2.095 2.005 5.905-6.166 5.732 6.152 2.123-1.976-7.827-8.397-8.028 8.382zm-28.619 21.408h8.79v-14.962h-8.79v14.962zm-56.128 74.292c-1.626 0-2.945 1.727-2.945 3.857s1.319 3.857 2.945 3.857c1.627 0 2.946-1.727 2.946-3.857s-1.319-3.857-2.946-3.857zm-30.104-91.853h23.711v-2.899h-23.711v2.899zm70.12 0v-2.899h-5.217c-.174-1.884-.9-5.218-3.45-7.856-2.435-2.521-5.884-3.797-10.32-3.797-4.406 0-7.884 1.276-10.32 3.797-2.579 2.638-3.303 5.972-3.506 7.856h-5.48v2.899h8.32l-.029-1.479c0-.058-.116-4.29 2.754-7.246 1.884-1.943 4.667-2.928 8.261-2.928s6.349.956 8.233 2.899c2.84 2.927 2.725 7.217 2.725 7.246l-.058 1.508h8.087zm48.256 2.6v14.96h8.79v-14.96h-8.79zm-14.914 89.253c-1.627 0-2.946 1.727-2.946 3.857s1.319 3.857 2.946 3.857 2.945-1.727 2.945-3.857-1.318-3.857-2.945-3.857zm-36.235 0c-1.626 0-2.945 1.727-2.945 3.857s1.319 3.857 2.945 3.857c1.627 0 2.946-1.727 2.946-3.857s-1.319-3.857-2.946-3.857zm-72.796 0c-1.627 0-2.946 1.727-2.946 3.857s1.32 3.857 2.946 3.857c1.627 0 2.945-1.727 2.945-3.857s-1.318-3.857-2.945-3.857z" fill="#232323"/><path d="M167.36 395.745h6.358v41.891h9.35v-41.891h6.359v-7.387h-22.068v7.387zm48.81 0h6.359v41.891h9.35v-41.891h6.36v-7.387H216.17v7.387zm49.372 0h6.359v41.891h9.35v-41.891h6.36v-7.387h-22.069v7.387zm48.811 0h6.359v41.891h9.35v-41.891h6.36v-7.387h-22.069v7.387zm47.502 0h6.359v41.891h9.35v-41.891h6.36v-7.387h-22.069v7.387zm48.812 0h6.358v41.891h9.35v-41.891h6.36v-7.387h-22.068v7.387zM173.623 289.052c0-4.809-3.934-8.743-8.742-8.743-4.809 0-8.743 3.934-8.743 8.743v25.482h17.485v-25.482zm22.676-8.743c-4.808 0-8.742 3.934-8.742 8.743v25.482h17.485v-25.482c0-4.809-3.934-8.743-8.743-8.743zm23.612 8.743v25.482h17.485v-25.482c0-4.809-3.935-8.743-8.743-8.743s-8.742 3.934-8.742 8.743zm51.802 0c0-4.809-3.934-8.743-8.742-8.743-4.809 0-8.743 3.934-8.743 8.743v25.482h17.485v-25.482zm28.288-8.743c-4.809 0-8.743 3.934-8.743 8.743v25.482h17.485v-25.482c0-4.809-3.934-8.743-8.742-8.743zm37.216 0c-4.809 0-8.743 3.934-8.743 8.743v25.482h17.485v-25.482c0-4.809-3.934-8.743-8.742-8.743zm26.51 34.225h17.485v-25.482c0-4.809-3.934-8.743-8.743-8.743-4.808 0-8.743 3.934-8.743 8.743v25.482zm48.903-25.482c0-4.809-3.934-8.743-8.742-8.743-4.809 0-8.743 3.934-8.743 8.743v25.482h17.485v-25.482zm19.03-8.743c-4.809 0-8.743 3.934-8.743 8.743v25.482h17.485v-25.482c0-4.809-3.934-8.743-8.742-8.743zm-237.792-43.856h8.182v-2.898h-11.08v25.761h2.898v-22.863zm-31.23 0h8.182v-2.898h-11.082v25.761h2.9v-22.863zm97.714 0h8.183v-2.898h-11.081v25.761h2.898v-22.863zm33.991 0h8.181v-2.898h-11.08v25.761h2.9v-22.863zm41.657 0h8.183v-2.898H333.1v25.761h2.9v-22.863zm34.787 0h8.18v-2.898h-11.08v25.761h2.9v-22.863zm29.734 0h8.181v-2.898h-11.08v25.761h2.9v-22.863zm27.773 0h8.181v-2.898h-11.08v25.761h2.9v-22.863zm-205.625 0h8.182v-2.898H219.77v25.761h2.899v-22.863zm79.856-31.724a4.126 4.126 0 0 0 4.114-4.114v-9.487c0-2.262-1.851-4.114-4.114-4.114s-4.115 1.852-4.115 4.114v9.487a4.126 4.126 0 0 0 4.115 4.114zm-59.29 6.436h8.146v-38.988h-8.146v38.988zm39.974-38.988h-8.117v38.988h8.117v-38.988zm46.438 0H321.5v38.988h8.146v-38.988zm34.785 0h-8.146v38.988h8.146v-38.988zM300 101.313c-109.557 0-198.688 89.131-198.688 198.686 0 109.557 89.131 198.688 198.688 198.688s198.687-89.131 198.687-198.688c0-109.555-89.13-198.686-198.687-198.686zm0 395.924c-108.757 0-197.238-88.48-197.238-197.238 0-108.757 88.48-197.236 197.238-197.236s197.238 88.48 197.238 197.236c0 108.759-88.48 197.238-197.238 197.238zm0-453.978c-141.568 0-256.74 115.173-256.74 256.74S158.432 556.74 300 556.74 556.74 441.566 556.74 299.998 441.568 43.26 300 43.26zm0 512.03c-140.768 0-255.291-114.523-255.291-255.29S159.233 44.71 300 44.71s255.29 114.523 255.29 255.29S440.767 555.29 300 555.29zm0-531.608C147.638 23.681 23.68 147.637 23.68 300c0 152.362 123.957 276.317 276.32 276.317 152.361 0 276.316-123.955 276.316-276.317 0-152.362-123.955-276.318-276.316-276.318zm0 548.62C149.85 572.302 27.698 450.148 27.698 300S149.852 27.7 300.001 27.7c150.147 0 272.302 122.153 272.302 272.3S450.148 572.302 300.001 572.302zM300 0C134.58 0 0 134.58 0 300s134.58 299.999 300 299.999 300-134.58 300-300S465.42 0 300 0zm0 595.64C136.984 595.64 4.362 463.015 4.362 300S136.984 4.361 300.001 4.361 595.64 136.984 595.64 300c0 163.017-132.624 295.64-295.64 295.64zm0-506.325c-116.172 0-210.685 94.512-210.685 210.684s94.513 210.685 210.685 210.685 210.684-94.513 210.684-210.685S416.173 89.315 300.001 89.315zm0 419.92c-115.373 0-209.235-93.862-209.235-209.236 0-115.372 93.862-209.235 209.235-209.235 115.374 0 209.235 93.863 209.235 209.235 0 115.374-93.861 209.235-209.235 209.235zM95.602 226.76a6.84 6.84 0 0 1 1.186.8c.3.263.42.585.357.963-.017.183-.051.372-.1.568a4.453 4.453 0 0 1-.166.54c-.074.189-.037.31.105.364.186.072.353-.078.495-.456.102-.257.215-.57.34-.938.13-.368.249-.733.36-1.093.135-.35.248-.665.342-.94.09-.273.153-.447.178-.515a52.381 52.381 0 0 1 1.483-3.55c.309-.741.657-1.575 1.04-2.505.384-.928.82-2.027 1.307-3.293.178-.469.309-.843.39-1.123.08-.277.111-.5.094-.668a.678.678 0 0 0-.164-.408 4.474 4.474 0 0 0-.419-.382c-.232-.17-.518-.354-.858-.552-.342-.196-.676-.393-1.007-.589a13.029 13.029 0 0 0-1.45-.738c-.35-.133-.555-.13-.611.01-.063.165.05.326.34.49.308.175.63.42.968.737.334.317.6.648.79.989.353.62.435 1.32.246 2.092-.19.777-.465 1.633-.824 2.57-.263.681-.504 1.256-.722 1.723-.22.467-.422.846-.6 1.14-.181.295-.363.522-.544.68a2.33 2.33 0 0 1-.566.368c-.43.212-1.285.126-2.565-.257-1.28-.385-3.207-1.07-5.789-2.063l-6.261-2.404c-1.362-.521-2.474-.949-3.34-1.281-.87-.336-1.56-.6-2.076-.799a34.54 34.54 0 0 1-1.28-.51 17.546 17.546 0 0 1-.877-.397c-.591-.28-1.01-.569-1.26-.869-.251-.296-.322-.72-.217-1.271.034-.23.087-.459.161-.687.074-.226.133-.4.178-.516.074-.187.04-.309-.102-.363-.186-.07-.353.08-.498.455-.099.259-.22.594-.368 1.009-.144.416-.289.824-.43 1.229-.142.403-.266.758-.371 1.068-.105.31-.167.487-.184.534-.017.048-.085.204-.198.468-.119.265-.255.588-.413.973-.162.382-.334.794-.518 1.234-.182.442-.349.86-.504 1.261-.145.374-.122.597.068.67.138.055.246-.012.317-.201.065-.163.147-.367.254-.61.108-.24.21-.422.312-.545.342-.541.699-.847 1.078-.918.38-.07.88-.01 1.506.173.292.088.598.184.918.295.322.108.753.266 1.29.474.518.198 1.212.462 2.075.797.87.332 1.985.761 3.344 1.282l6.193 2.378a657.11 657.11 0 0 1 4.513 1.752c1.319.522 2.338.974 3.054 1.355zm-11.037-38.35c.09-.15.26-.336.504-.557a3.18 3.18 0 0 1 .838-.535c.373-.188.871-.354 1.494-.497.623-.144 1.362-.243 2.208-.3.397-.031.974-.054 1.727-.076.759-.023 1.588-.046 2.488-.071a190 190 0 0 1 2.783-.048 193.79 193.79 0 0 0 2.644-.04c.815-.02 1.5-.023 2.064-.014.563.011.9.02 1.01.027.306.032.59.068.855.109.27.04.552.105.85.192.3.088.622.206.973.351.348.149.742.35 1.175.605l2.794 1.64c.26.153.69.413 1.29.781.601.368 1.235.775 1.9 1.226.453.326.796.657 1.034.998.235.344.288.695.164 1.059-.046.177-.108.36-.187.545a5.114 5.114 0 0 1-.255.506c-.102.173-.09.298.043.374.172.102.36-.02.563-.365.141-.24.306-.535.501-.889.19-.351.377-.696.558-1.026.18-.333.34-.624.475-.88.133-.255.215-.405.238-.448.028-.044.119-.188.277-.429.153-.243.351-.552.584-.922.232-.374.49-.785.767-1.233.28-.449.552-.9.82-1.355.202-.348.219-.572.046-.674-.133-.076-.25-.028-.351.146-.088.152-.23.37-.422.647-.192.28-.382.527-.566.739-.357.461-.747.682-1.178.662-.424-.015-.888-.143-1.392-.379a51.565 51.565 0 0 1-1.996-1.064 90.37 90.37 0 0 1-1.31-.748l-2.795-1.642c-.54-.317-1.058-.65-1.554-.999s-.962-.815-1.41-1.395c-.186-.227-.461-.652-.826-1.273a290.762 290.762 0 0 1-2.67-4.715 98.806 98.806 0 0 1-1.395-2.61c-.428-.835-.804-1.582-1.133-2.239a18.65 18.65 0 0 1-.662-1.44 27.77 27.77 0 0 1-.481-1.484 4.634 4.634 0 0 1-.164-1.212c-.02-.36.017-.7.118-1.022.102-.318.201-.566.303-.738.167-.282.165-.473-.01-.575-.131-.076-.278.025-.445.309-.088.151-.224.396-.414.738-.187.343-.37.685-.557 1.028-.184.342-.357.657-.51.944-.156.289-.246.454-.272.497-.076.13-.257.402-.543.815-.289.416-.558.84-.813 1.271-.203.348-.24.56-.11.637.108.062.314-.035.609-.299.161-.168.342-.242.549-.223.206.02.43.099.668.239.218.127.439.309.662.543.23.235.45.564.671.983.11.21.32.597.631 1.156a189.694 189.694 0 0 0 2.454 4.304c.48.821.932 1.605 1.351 2.347.425.745.81 1.401 1.16 1.97.352.572.612.98.788 1.228-.215.02-.674.025-1.387.015-.708-.008-1.535-.013-2.48-.014-.946-.003-1.956-.006-3.032-.011-1.073-.003-2.084-.009-3.032-.012-.945 0-1.772-.005-2.482-.014-.708-.008-1.164-.014-1.365-.015a6.073 6.073 0 0 1-.85-.084 1.966 1.966 0 0 1-.667-.24c-.238-.14-.351-.394-.337-.765.025-.19.045-.338.065-.444.017-.105-.006-.177-.07-.215a.222.222 0 0 0-.21-.015c-.074.03-.164.13-.266.303a33.028 33.028 0 0 0-.98 1.784c-.289.56-.461.894-.526 1.003-.026.043-.125.203-.303.477-.176.276-.371.589-.595.94-.22.353-.433.69-.642 1.02-.21.33-.357.571-.448.724-.164.28-.17.464-.02.555.154.089.292.024.417-.193zm31.988-33.99c.481.842.996 1.585 1.546 2.236.549.651 1.058 1.182 1.531 1.597.68.597 1.427 1.163 2.245 1.698.818.535 1.698.99 2.638 1.365s1.956.65 3.043.819c1.087.171 2.242.191 3.462.058a15.028 15.028 0 0 0 5.738-1.905c1.812-1.033 3.655-2.619 5.529-4.753a29.59 29.59 0 0 0 1.189-1.437c.396-.505.767-1.003 1.118-1.499.351-.495.66-.976.92-1.446.266-.474.464-.9.6-1.282.12-.366.164-.615.139-.753-.031-.142-.133-.377-.311-.705a13.543 13.543 0 0 0-.75-1.058c-.32-.417-.646-.82-.974-1.204-.326-.39-.62-.733-.88-1.028a13.497 13.497 0 0 0-.47-.518 1.44 1.44 0 0 0-.338-.218c-.113-.044-.198-.028-.266.046-.113.131-.056.35.176.656.235.268.52.714.863 1.334.343.618.54 1.217.598 1.801a5.34 5.34 0 0 1-.686 3.089c-.543.98-1.285 2.004-2.23 3.081-1.325 1.509-2.828 2.64-4.507 3.389-1.679.748-3.388 1.153-5.13 1.21a13.86 13.86 0 0 1-5.137-.804 13.754 13.754 0 0 1-4.566-2.684c-1.452-1.275-2.653-2.622-3.598-4.04-.946-1.416-1.464-3.08-1.552-4.997a8.739 8.739 0 0 1 .06-1.553c.074-.577.238-1.211.492-1.904.26-.694.635-1.443 1.127-2.249.49-.805 1.15-1.68 1.979-2.625 1.095-1.244 2.25-2.234 3.468-2.973 1.214-.736 2.256-1.16 3.12-1.266.653-.095 1.335-.016 2.046.239.71.258 1.339.628 1.888 1.11.393.35.657.448.793.294.13-.15.005-.408-.371-.778-.116-.097-.28-.255-.496-.463-.22-.206-.47-.435-.753-.684-.283-.25-.569-.504-.852-.771-.283-.27-.529-.511-.739-.73a24.582 24.582 0 0 1-1.004-1.055 5.57 5.57 0 0 0-.459-.476c-.093-.085-.184-.124-.275-.117-.087.005-.206.073-.36.213a23.95 23.95 0 0 1-1.375 1.218c-.484.399-1.01.832-1.585 1.293a23.482 23.482 0 0 0-2.16 1.914 39.912 39.912 0 0 0-1.79 1.894c-.959 1.09-1.743 2.146-2.354 3.165-.615 1.022-1.093 1.991-1.444 2.924a11.473 11.473 0 0 0-.68 2.718 13.285 13.285 0 0 0 .546 5.796 15.539 15.539 0 0 0 1.238 2.818zm31.546-47.841c.165-.283.377-.633.643-1.047.266-.417.56-.844.886-1.286.323-.447.657-.88 1.008-1.313.35-.43.688-.807 1.013-1.121.227-.242.422-.41.586-.507.164-.093.266-.157.306-.188a.279.279 0 0 0 .105-.202c.011-.088-.077-.169-.264-.247-.39-.175-.724-.32-1.004-.434a19.362 19.362 0 0 0-.76-.296c-.257-.085-.424-.1-.503-.037a.93.93 0 0 0-.226.295 7.921 7.921 0 0 0-.306.74c-.028.086-.133.35-.314.794-.179.441-.38.962-.598 1.562-.218.6-.436 1.21-.656 1.828-.221.615-.391 1.114-.51 1.49-.076.187-.082.323-.023.402.094.119.19.139.29.062.056-.045.169-.212.327-.495zm-3.187 7.066c.139-.108.317-.238.532-.391.215-.15.396-.253.55-.307.571-.285 1.035-.362 1.398-.228.356.134.758.444 1.197.929.207.223.416.464.637.721.218.26.504.619.858 1.076l1.364 1.755c.572.733 1.305 1.673 2.2 2.825l4.073 5.234a478.525 478.525 0 0 1 2.961 3.833c.864 1.127 1.5 2.039 1.917 2.736.277.48.481.913.6 1.297.125.38.06.718-.192 1.006-.108.15-.233.296-.377.439a3.83 3.83 0 0 1-.422.375c-.158.126-.192.248-.099.365.125.159.345.114.663-.133.218-.168.475-.388.78-.655.298-.265.598-.515.898-.745.3-.269.56-.486.779-.655.218-.171.348-.27.388-.301.215-.17.518-.397.9-.68.385-.281.883-.631 1.486-1.036.592-.427 1.305-.951 2.143-1.574.838-.62 1.823-1.37 2.955-2.25.295-.232.527-.422.702-.57.17-.15.295-.295.374-.435a.67.67 0 0 0 .093-.432 2.444 2.444 0 0 0-.167-.586 8.666 8.666 0 0 0-.413-.777 287.836 287.836 0 0 0-1.132-1.91 7.817 7.817 0 0 0-.312-.499c-.079-.1-.161-.192-.249-.284-.085-.092-.178-.098-.277-.022-.12.09-.094.312.079.654.38.694.597 1.278.651 1.758.057.481-.05.958-.323 1.424-.274.467-.673.931-1.206 1.394-.532.463-.999.848-1.392 1.157-.736.571-1.342.995-1.826 1.273-.484.284-.917.428-1.305.442a1.65 1.65 0 0 1-1.082-.348c-.336-.25-.716-.62-1.138-1.124-.124-.156-.362-.464-.716-.92-.356-.454-.741-.95-1.158-1.486-.416-.535-.815-1.05-1.203-1.546-.387-.497-.679-.874-.88-1.13l-2.038-2.615c-.108-.14-.09-.266.045-.374l.77-.574c.396-.289.821-.606 1.274-.94.453-.338.9-.663 1.345-.977.438-.311.767-.535.982-.668.62-.39 1.112-.557 1.472-.5.362.052.654.165.883.336.215.153.382.3.51.439.124.141.249.291.373.451.142.177.278.211.42.104.096-.077.107-.187.025-.332s-.167-.277-.26-.394a8.123 8.123 0 0 1-.227-.326c-.105-.154-.227-.33-.365-.528-.136-.195-.275-.39-.408-.586a8.69 8.69 0 0 1-.362-.556c-.346-.527-.59-.941-.73-1.247-.142-.303-.25-.504-.329-.603-.122-.159-.235-.198-.334-.122-.08.062-.127.306-.142.732a1.14 1.14 0 0 1-.308.715c-.184.21-.442.475-.767.79-.164.158-.479.43-.949.81-.467.378-.968.778-1.503 1.194-.515.402-.993.771-1.427 1.11-.435.342-.704.549-.803.626-.12.092-.258.04-.41-.16l-6.387-8.206c-.156-.198-.176-.343-.054-.436l.682-.532c.397-.309.827-.636 1.291-.98.461-.345.909-.676 1.33-.99.425-.313.705-.507.838-.58.87-.519 1.5-.793 1.889-.825.39-.033.727.034 1.01.193.218.116.422.277.612.478.19.204.322.354.399.453.2.258.382.326.54.201.06-.045.077-.116.051-.206a1.395 1.395 0 0 0-.099-.282c-.04-.096-.13-.24-.266-.437a14.235 14.235 0 0 1-.419-.629c-.141-.226-.277-.429-.407-.614s-.224-.32-.283-.4c-.29-.445-.479-.798-.584-1.052-.101-.252-.192-.43-.268-.53-.14-.178-.25-.236-.326-.175a.48.48 0 0 0-.164.22.816.816 0 0 1-.139.254c-.23.273-.62.657-1.163 1.145-.179.139-.615.487-1.311 1.042-.696.56-1.45 1.153-2.262 1.786-.795.62-1.517 1.18-2.174 1.693-.634.492-.98.764-1.039.81l-1.265.887c-.351.242-.72.51-1.093.802-.376.295-.736.572-1.07.834-.317.246-.416.452-.294.61.093.12.22.116.379-.008zm33.97-23.632c.153-.085.35-.184.588-.294.238-.114.436-.186.595-.213.611-.18 1.081-.177 1.415.015.332.195.671.569 1.025 1.12.161.254.331.528.501.821.173.29.394.695.665 1.204.26.486.612 1.14 1.048 1.961.436.821 1 1.871 1.684 3.16l3.125 5.848a690.555 690.555 0 0 1 2.265 4.28c.657 1.26 1.13 2.268 1.418 3.022.198.525.32.984.377 1.383.054.396-.065.719-.363.96-.133.127-.28.249-.444.366a5.004 5.004 0 0 1-.484.302c-.176.094-.23.208-.156.34.094.178.317.172.671-.018.246-.13.538-.301.88-.514.343-.209.68-.404 1.014-.58.342-.214.634-.383.88-.514.244-.131.388-.206.43-.232.247-.13.58-.303 1.008-.516.428-.211.971-.469 1.64-.768.653-.32 1.446-.714 2.377-1.184.934-.469 2.03-1.04 3.295-1.716.332-.177.595-.325.787-.444.193-.113.343-.235.448-.365a.683.683 0 0 0 .164-.408 2.469 2.469 0 0 0-.068-.606c-.051-.2-.142-.478-.275-.835l-.407-1.085c-.14-.367-.264-.695-.38-.993a13.634 13.634 0 0 0-.223-.543 5.957 5.957 0 0 0-.199-.321c-.067-.104-.16-.128-.268-.068-.134.069-.145.288-.034.656.254.748.37 1.36.342 1.845-.025.487-.21.934-.56 1.349-.349.413-.827.803-1.427 1.167-.603.365-1.127.664-1.571.9-.818.44-1.492.755-2.013.949-.524.192-.977.266-1.359.212a1.688 1.688 0 0 1-1.01-.526c-.29-.303-.598-.735-.929-1.3-.093-.178-.277-.52-.549-1.03-.272-.511-.569-1.065-.886-1.663-.323-.598-.628-1.174-.923-1.729-.297-.553-.52-.975-.676-1.263l-1.56-2.926c-.082-.153-.048-.272.107-.355.133-.073.42-.217.855-.438.439-.218.912-.456 1.416-.713a71.174 71.174 0 0 1 1.489-.729c.487-.23.849-.396 1.081-.493.68-.278 1.192-.358 1.537-.243.346.115.617.276.813.484.186.187.328.358.43.52.096.16.195.328.289.506.107.198.24.258.393.176.11-.06.139-.167.085-.326a2.992 2.992 0 0 0-.19-.43 14.86 14.86 0 0 1-.17-.358 23.106 23.106 0 0 0-.268-.582c-.1-.218-.201-.433-.303-.651a9.456 9.456 0 0 1-.26-.609c-.253-.577-.423-1.027-.51-1.353-.085-.321-.159-.54-.221-.65-.094-.176-.195-.237-.306-.178-.09.047-.178.28-.269.698-.06.26-.2.478-.422.654-.22.175-.518.39-.891.645-.187.13-.544.341-1.07.636a79.92 79.92 0 0 1-1.687.921c-.575.312-1.107.592-1.597.852l-.897.482c-.13.07-.258-.006-.377-.227l-4.897-9.176c-.12-.22-.11-.37.022-.439l.765-.406c.441-.238.92-.487 1.438-.747.515-.264 1.008-.51 1.48-.748.47-.24.779-.379.923-.43.946-.362 1.614-.526 2.002-.492.387.036.71.155.962.362.195.153.37.345.524.577.15.23.255.402.314.516.156.285.32.382.498.288.065-.036.096-.102.088-.198a1.87 1.87 0 0 0-.051-.293c-.026-.099-.09-.256-.193-.474a21.7 21.7 0 0 1-.302-.692 20.954 20.954 0 0 0-.295-.675c-.099-.204-.167-.354-.215-.439-.204-.493-.334-.87-.393-1.138-.057-.266-.117-.459-.176-.569-.108-.198-.204-.275-.292-.228a.452.452 0 0 0-.198.19.802.802 0 0 1-.178.225c-.275.232-.722.54-1.342.928a258.236 258.236 0 0 1-4.003 2.18c-.888.476-1.698.909-2.428 1.297-.708.382-1.096.586-1.164.622l-1.398.663a21.93 21.93 0 0 0-1.215.604c-.419.225-.818.436-1.197.638-.354.19-.484.373-.388.55.07.133.193.154.374.06zm66.311-26.083c.26-.041.467-.05.626-.031.643-.004 1.093.136 1.356.413.26.283.481.738.662 1.367.085.29.167.603.247.93.079.33.178.777.294 1.344.108.543.255 1.27.442 2.178.187.911.424 2.082.713 3.509l1.325 6.498c.36 1.773.674 3.356.945 4.75s.44 2.495.499 3.302c.04.558.025 1.035-.034 1.43-.06.396-.267.668-.62.818a3.62 3.62 0 0 1-.533.225 5.021 5.021 0 0 1-.546.15c-.198.04-.28.131-.249.28.04.197.255.256.651.176a35.33 35.33 0 0 0 2.086-.502c.371-.075.697-.148.977-.219.28-.07.459-.11.532-.127.54-.11 1.11-.221 1.702-.326.591-.11 1.288-.218 2.086-.33.792-.134 1.684-.29 2.675-.465.988-.179 2.149-.402 3.479-.673.493-.099.875-.19 1.155-.273.277-.082.481-.175.617-.28a.677.677 0 0 0 .252-.358c.037-.136.07-.321.1-.556.016-.286.019-.626 0-1.022-.015-.394-.03-.784-.04-1.164a13.603 13.603 0 0 0-.159-1.62c-.076-.37-.187-.54-.334-.511-.176.036-.252.219-.238.549.023.357-.011.758-.096 1.213a4.217 4.217 0 0 1-.41 1.196c-.332.634-.878 1.078-1.634 1.333-.753.255-1.625.486-2.61.687-.713.144-1.325.247-1.84.315-.51.065-.94.102-1.285.108a3.036 3.036 0 0 1-.866-.092 2.205 2.205 0 0 1-.612-.28c-.41-.25-.798-1.018-1.16-2.3-.363-1.286-.821-3.281-1.373-5.99l-1.34-6.574c-.291-1.425-.526-2.598-.713-3.507-.187-.909-.334-1.638-.444-2.18a39.533 39.533 0 0 1-.255-1.351 20.427 20.427 0 0 1-.139-.953c-.079-.651-.062-1.16.054-1.529.119-.37.439-.66.96-.867.212-.096.433-.173.662-.231.235-.062.408-.105.532-.13.199-.04.283-.133.252-.28-.04-.199-.257-.255-.65-.176-.273.057-.62.133-1.048.232l-1.266.297-1.104.262c-.317.078-.498.12-.549.132-.05.008-.218.04-.5.085-.287.042-.635.102-1.043.173-.407.069-.849.147-1.316.229-.473.082-.917.167-1.336.249-.393.083-.569.22-.53.416.029.15.142.205.34.164.173-.034.388-.073.651-.113zm40.198-5.78c.224.014.439.042.643.08.786.14 1.245.825 1.378 2.048.04.3.07.622.102.958.028.34.057.797.082 1.375l.102 2.222c.045.929.102 2.12.167 3.573l.309 6.626c.085 1.806.15 3.42.203 4.838.054 1.419.049 2.532-.014 3.34-.05.555-.136 1.025-.257 1.408-.12.383-.366.62-.74.714-.172.058-.359.105-.56.138a5.062 5.062 0 0 1-.56.065c-.201.008-.297.087-.292.239.012.2.215.292.615.273.277-.014.617-.034 1.016-.065.402-.033.792-.062 1.166-.095.377-.027.708-.055.997-.082l.506-.042c.051-.003.221-.005.51-.007.291 0 .654-.003 1.092-.012s.923-.017 1.453-.03a74.511 74.511 0 0 0 1.582-.052c.402-.02.597-.13.586-.331-.006-.15-.11-.22-.311-.212-.176.01-.43.008-.773 0a9.087 9.087 0 0 1-.926-.071c-.583-.05-.968-.258-1.16-.626-.193-.368-.329-.826-.405-1.377-.139-.797-.247-1.907-.323-3.325a456.878 456.878 0 0 1-.246-4.835l-.306-6.625c-.068-1.454-.122-2.648-.167-3.574l-.102-2.224a34.961 34.961 0 0 1-.045-1.371c-.003-.341 0-.663.014-.966.017-.654.113-1.155.286-1.504.173-.347.51-.582 1.005-.704.223-.06.405-.1.54-.12.14-.021.27-.03.397-.038.2-.011.297-.088.291-.24-.01-.202-.215-.29-.617-.274a55.56 55.56 0 0 0-1.016.067l-1.163.092c-.377.032-.711.058-.997.083-.289.026-.458.041-.51.044-.048 0-.22.004-.509.003-.289.001-.623.007-.996.007-.38.007-.782.015-1.21.02-.427.01-.789.018-1.09.032-.401.019-.6.129-.588.33.006.149.11.22.312.212.124-.005.3-.001.529.014zm31.362 27.978c.275.032.612.06 1.014.08.402.02.793.057 1.166.1.402.02.739.05 1.014.082.274.03.436.05.487.056.076.009.336.044.784.11.447.067.942.155 1.486.27.546.087 1.081.178 1.6.264.523.087.882.143 1.08.166 1.6.187 3.027.113 4.278-.218 1.251-.334 2.318-.84 3.193-1.52a7.874 7.874 0 0 0 2.09-2.412 7.835 7.835 0 0 0 .945-2.888c.13-1.095.037-2.106-.272-3.027a8.466 8.466 0 0 0-1.302-2.487 9.369 9.369 0 0 0-1.9-1.894 11.492 11.492 0 0 0-2.075-1.248c.504-.396.988-.807 1.455-1.234.47-.426.9-.886 1.303-1.383.399-.497.736-1.046 1.007-1.646s.456-1.287.547-2.061c.056-.476.022-1.042-.105-1.703-.125-.657-.433-1.312-.926-1.966-.49-.652-1.197-1.243-2.123-1.77-.926-.521-2.148-.874-3.671-1.055a43.429 43.429 0 0 0-2.364-.22 37.322 37.322 0 0 1-1.73-.145c-.05-.009-.215-.034-.5-.082-.287-.043-.635-.1-1.045-.159-.408-.06-.852-.126-1.325-.192a46.03 46.03 0 0 0-1.345-.179c-.399-.045-.611.029-.634.23-.02.148.074.235.275.26.172.02.39.051.65.096.261.041.465.098.607.166.608.2.996.468 1.157.82.162.345.23.846.201 1.5-.011.305-.028.624-.056.962-.029.337-.074.794-.142 1.368-.065.549-.15 1.285-.26 2.208l-.416 3.555-.773 6.587c-.213 1.798-.408 3.4-.586 4.81-.179 1.407-.365 2.502-.558 3.292-.139.538-.3.988-.481 1.345-.181.358-.464.553-.847.583a3.24 3.24 0 0 1-.574.045 4.219 4.219 0 0 1-.566-.027c-.198-.022-.306.04-.326.189-.023.2.164.325.563.372zm8.227-26.05c.02-.199.187-.318.492-.357.309-.04.64-.054.994-.039.351.019.626.037.827.061.922.11 1.678.388 2.273.838a4.64 4.64 0 0 1 1.381 1.659 6.78 6.78 0 0 1 .634 2.18c.096.797.096 1.582.009 2.354-.094.774-.3 1.47-.626 2.087-.328.623-.716 1.133-1.166 1.536-.227.2-.442.352-.646.456-.198.1-.421.177-.668.225a3.413 3.413 0 0 1-.894.025c-.354-.027-.79-.073-1.314-.133-.699-.083-1.22-.164-1.565-.243a7.977 7.977 0 0 1-.7-.177c-.166-.095-.237-.242-.215-.442l1.184-10.03zm-2.562 22.088c.017-.15.054-.52.113-1.11.054-.586.128-1.278.224-2.077.096-.799.192-1.634.294-2.509l.283-2.394.25-2.132c.02-.175.107-.255.257-.238l.634.077c.275.03.563.065.86.099.304.037.58.076.841.117.26.044.45.087.575.126.442.102.897.244 1.373.426.47.183 1.008.523 1.605 1.024a7.473 7.473 0 0 1 1.58 1.893c.387.68.679 1.37.874 2.077.196.705.309 1.402.343 2.09.034.685.017 1.305-.048 1.852-.122 1.048-.405 1.893-.847 2.536-.444.647-.956 1.135-1.54 1.47a5.03 5.03 0 0 1-1.82.64 6.611 6.611 0 0 1-1.693.05 18.867 18.867 0 0 1-.654-.096 10.855 10.855 0 0 1-.852-.177 8.508 8.508 0 0 1-.917-.279 3.941 3.941 0 0 1-.804-.398c-.283-.185-.492-.36-.623-.526a1.744 1.744 0 0 1-.291-.585 2.69 2.69 0 0 1-.077-.807c.012-.317.032-.699.06-1.149zm33.204 10.715c.26.079.594.164.985.257.39.095.764.198 1.127.306.39.095.719.178.985.26l.47.145c.266.078.622.192 1.075.345.448.153 1.02.357 1.705.617.685.235 1.528.518 2.519.847.985.328 2.168.7 3.538 1.118.357.11.646.192.872.246a1.8 1.8 0 0 0 .572.057.71.71 0 0 0 .408-.174c.107-.098.232-.255.38-.474a8.26 8.26 0 0 0 .395-.785c.159-.345.318-.696.482-1.056.158-.356.305-.68.43-.97.13-.29.204-.47.226-.543.034-.121.068-.242.091-.366.023-.123-.023-.204-.141-.24-.148-.043-.306.104-.493.44-.345.711-.702 1.227-1.059 1.552-.362.32-.815.504-1.353.552-.538.045-1.15-.017-1.834-.185a31.349 31.349 0 0 1-1.744-.474c-.889-.27-1.591-.521-2.095-.755-.51-.233-.877-.502-1.115-.812a1.676 1.676 0 0 1-.334-1.089c.005-.416.096-.941.26-1.574.057-.19.17-.563.34-1.118.17-.552.35-1.152.55-1.8.197-.651.39-1.274.57-1.874.188-.602.324-1.058.42-1.372l.962-3.172c.051-.167.165-.226.329-.174.147.044.453.142.917.296.464.156.968.321 1.5.5.538.175 1.065.352 1.574.535.504.182.878.321 1.11.417.674.286 1.098.589 1.257.917.164.326.243.632.238.916a3.158 3.158 0 0 1-.068.67c-.046.184-.097.373-.153.566-.068.215-.017.348.153.402.118.034.215-.023.288-.17.068-.149.13-.296.17-.439.023-.075.068-.198.136-.373.068-.179.142-.378.22-.603.086-.223.165-.448.25-.673.08-.225.164-.43.243-.614.233-.587.43-1.025.595-1.315.17-.29.272-.495.311-.616.057-.194.029-.308-.096-.344-.096-.028-.323.074-.68.303a1.127 1.127 0 0 1-.758.163c-.283-.032-.645-.09-1.093-.174-.22-.04-.623-.144-1.206-.309a84.582 84.582 0 0 1-1.845-.542c-.623-.19-1.2-.366-1.727-.525-.527-.163-.855-.26-.974-.297-.141-.044-.181-.185-.108-.427l3.03-9.948c.079-.24.186-.34.328-.296l.832.254c.481.147.99.311 1.54.49l1.58.519c.498.165.815.281.956.35.923.413 1.512.77 1.761 1.067.25.3.39.614.425.94.028.244.017.503-.04.772a6.044 6.044 0 0 1-.141.589c-.097.313-.046.498.147.556.073.024.136-.003.198-.078.062-.07.119-.151.176-.243.05-.086.118-.243.203-.467.08-.224.17-.462.272-.705.102-.245.187-.476.266-.685.08-.215.13-.368.159-.464.204-.491.38-.85.532-1.082.147-.23.238-.404.277-.526.063-.215.051-.34-.045-.368a.488.488 0 0 0-.277-.003.797.797 0 0 1-.283.028c-.357-.03-.895-.124-1.608-.29-.216-.066-.753-.222-1.608-.471-.855-.248-1.778-.522-2.763-.821-.963-.295-1.84-.56-2.633-.801l-1.262-.385-1.455-.524a21.31 21.31 0 0 0-1.286-.43c-.458-.139-.888-.27-1.302-.394-.379-.119-.6-.082-.662.11-.045.145.028.247.226.306.165.051.374.12.623.21s.436.178.566.269c.566.306.895.641.997 1.013.096.37.073.878-.074 1.515-.062.297-.136.607-.226.938-.085.327-.21.766-.38 1.32-.164.527-.379 1.238-.645 2.125-.272.89-.623 2.033-1.047 3.427l-1.931 6.344c-.527 1.73-1.008 3.272-1.427 4.625-.43 1.356-.804 2.4-1.138 3.141a6.57 6.57 0 0 1-.713 1.241c-.238.32-.555.463-.934.425a3.529 3.529 0 0 1-.572-.058 5.055 5.055 0 0 1-.555-.126c-.193-.062-.311-.018-.351.127-.062.193.102.346.487.465zm34.275 12.334c.25.13.55.28.912.451l1.059.507c.34.16.747.352 1.228.573.045.023.193.108.442.25.255.143.572.325.957.537.379.215.803.447 1.268.7.464.255.928.503 1.398.745.357.186.578.188.674.01.068-.133.011-.245-.164-.337a11.22 11.22 0 0 1-.668-.39 9.25 9.25 0 0 1-.77-.524c-.476-.334-.708-.708-.691-1.125.017-.415.13-.88.34-1.395.283-.757.741-1.772 1.387-3.039.64-1.263 1.376-2.699 2.208-4.305l.419-.806c.09-.178.215-.226.373-.145l4.082 2.2c.153.08.26.223.329.425.04.305.102.714.192 1.225.09.512.176 1.075.272 1.691.09.611.187 1.257.289 1.933.102.677.215 1.34.328 1.993a97.63 97.63 0 0 0 .821 4.394c.244 1.162.629 2.117 1.144 2.865.3.467.68.874 1.15 1.23.463.358 1.165.775 2.1 1.26l2.377 1.233c.312.163.533.252.663.28.13.022.22-.02.283-.132.068-.135 0-.254-.204-.356-.108-.06-.272-.151-.492-.277-.216-.127-.47-.294-.76-.501-.384-.286-.848-.753-1.392-1.403-.543-.647-1.025-1.688-1.438-3.124-.436-1.554-.85-3.351-1.24-5.392-.385-2.04-.81-4.297-1.28-6.777 2.209-.607 3.941-1.384 5.198-2.336 1.257-.945 2.208-2.045 2.853-3.295.3-.58.493-1.159.584-1.735a7.598 7.598 0 0 0 .073-1.62 6.592 6.592 0 0 0-.243-1.372 7.047 7.047 0 0 0-.368-1.018 7.507 7.507 0 0 0-2.293-2.739 22.498 22.498 0 0 0-3.063-1.908 39.41 39.41 0 0 0-1.014-.5c-.407-.199-.82-.4-1.24-.6-.418-.205-.792-.383-1.12-.54a35.008 35.008 0 0 1-.629-.304c-.04-.023-.192-.108-.442-.252-.249-.145-.554-.315-.917-.518a154.39 154.39 0 0 0-1.172-.649 70.93 70.93 0 0 0-1.194-.642c-.357-.184-.583-.186-.674-.007-.074.133-.017.245.164.338.153.08.346.19.572.32.232.133.402.256.51.368.503.402.764.794.792 1.175.028.385-.085.874-.34 1.477-.118.28-.249.574-.39.88-.147.31-.351.72-.617 1.232-.255.49-.595 1.148-1.025 1.972-.425.828-.974 1.885-1.648 3.18l-3.051 5.888a440.656 440.656 0 0 1-2.242 4.292c-.663 1.254-1.229 2.214-1.687 2.883a6.725 6.725 0 0 1-.923 1.09c-.3.273-.629.352-.997.245a3.16 3.16 0 0 1-.554-.159 4.104 4.104 0 0 1-.521-.226c-.182-.092-.3-.071-.368.062-.097.178.034.36.39.544zm16.793-21.261c.102-.201.26-.29.475-.262.204.045.515.151.94.314.425.164.895.38 1.404.644 1.806.936 2.922 2.26 3.335 3.976.413 1.713.073 3.62-1.014 5.717-.656 1.27-1.41 2.245-2.259 2.923-.843.679-1.658 1.07-2.445 1.172-.521.07-1.025.028-1.512-.122a8.283 8.283 0 0 1-1.33-.544 16.201 16.201 0 0 1-2.05-1.254c-.628-.45-1.02-.818-1.183-1.102a.474.474 0 0 1-.029-.523l5.668-10.94zm24.945 45.082a18.159 18.159 0 0 0 1.857 3.091c.696.92 1.398 1.718 2.106 2.395a34.767 34.767 0 0 0 1.92 1.707c.424.345.916.712 1.46 1.093.55.382 1.144.744 1.789 1.09.64.345 1.302.656 1.982.934.679.28 1.358.484 2.032.608.125.006.232.013.323.02.09.011.187-.033.294-.122.108-.093.238-.226.402-.403.159-.177.374-.432.646-.763l2.666-3.272c.504-.625.951-1.168 1.33-1.637.38-.468.782-.921 1.2-1.356.448-.475.856-.785 1.218-.928.363-.143.765-.096 1.223.141.204.105.368.199.481.272.114.08.221.159.317.235.153.129.283.136.38.019.124-.158.034-.363-.278-.616-.215-.173-.487-.382-.804-.629a140.48 140.48 0 0 0-1.726-1.307c-.233-.173-.368-.278-.408-.306-.04-.034-.164-.147-.38-.337-.22-.192-.48-.425-.798-.695-.311-.273-.65-.565-1.013-.876-.362-.309-.708-.6-1.036-.87-.317-.254-.538-.303-.657-.146-.096.116-.068.237.085.365.142.11.306.255.504.43.192.176.334.331.419.466.232.315.39.601.475.85.091.25.097.511.012.787-.074.278-.244.609-.51.991s-.634.87-1.11 1.452l-4.048 4.968c-.379.468-.849.652-1.415.547a3.657 3.657 0 0 1-.94-.278 10.096 10.096 0 0 1-1.019-.512c-.34-.198-.674-.412-1.002-.647a14.623 14.623 0 0 1-4.246-4.601c-.906-1.529-1.484-3.34-1.738-5.421-.046-.459-.051-1.079-.012-1.86.034-.779.17-1.646.42-2.6.237-.953.6-1.96 1.092-3.02.493-1.057 1.155-2.103 1.999-3.134 1.392-1.714 2.881-2.994 4.455-3.832 1.569-.84 3.063-1.251 4.479-1.237.894.017 1.726.117 2.49.306.776.19 1.473.436 2.101.736.629.304 1.212.637 1.738 1 .527.367 1.025.74 1.495 1.12.934.762 1.727 1.529 2.378 2.301s1.172 1.506 1.562 2.197c.391.692.668 1.34.827 1.938.164.6.22 1.108.17 1.523a4.612 4.612 0 0 1-.413 1.434 8.008 8.008 0 0 1-.538.993c-.204.323-.255.527-.159.606.102.076.204.09.317.035.108-.056.26-.202.448-.435a60.807 60.807 0 0 1 1.505-1.788c.414-.47.77-.85 1.048-1.138.283-.289.51-.513.668-.674.164-.158.283-.284.362-.382a.337.337 0 0 0 .074-.21c0-.08-.068-.192-.21-.338a28.21 28.21 0 0 1-1.143-1.104 11.216 11.216 0 0 1-.985-1.117c-.125-.13-.312-.35-.578-.662a30.547 30.547 0 0 0-2.134-2.276 22.974 22.974 0 0 0-1.353-1.197 37.216 37.216 0 0 0-1.846-1.407 20.526 20.526 0 0 0-2.146-1.334 17.81 17.81 0 0 0-2.468-1.087 13.897 13.897 0 0 0-2.814-.662c-.98-.115-2.01-.108-3.108.025a12.88 12.88 0 0 0-3.295.858c-1.11.446-2.197 1.059-3.273 1.837-1.07.779-2.083 1.753-3.034 2.922a15.12 15.12 0 0 0-1.846 2.867c-.487 1-.86 1.982-1.115 2.956a13.91 13.91 0 0 0-.465 2.833c-.045.915-.005 1.748.125 2.506a14.701 14.701 0 0 0 1.189 3.762zm29.74 28.808c-.153-.101-.305-.22-.453-.359a3.905 3.905 0 0 1-.396-.402c-.13-.152-.255-.18-.368-.082-.153.13-.102.35.164.654.181.21.402.465.674.76.272.296.532.585.787.865.255.275.481.52.68.733.197.207.31.334.345.373.034.038.141.17.317.397.18.23.407.513.685.855.277.341.583.718.911 1.127.334.409.674.812 1.02 1.214.26.303.47.391.622.262.113-.097.102-.222-.028-.375-.113-.133-.272-.34-.47-.613a7.053 7.053 0 0 1-.515-.775c-.323-.489-.397-.919-.221-1.298.17-.38.447-.77.832-1.165.55-.602 1.353-1.366 2.429-2.3a427.293 427.293 0 0 1 3.663-3.164l5.033-4.315c1.11-.95 2.016-1.726 2.723-2.329.703-.607 1.269-1.088 1.688-1.448.436-.376.787-.67 1.058-.877.26-.215.521-.408.759-.586.532-.385.985-.619 1.37-.694.38-.082.764.04 1.172.357.187.139.328.256.43.354.097.096.187.192.272.286.125.153.25.181.368.082.153-.127.096-.348-.17-.654-.175-.21-.402-.464-.673-.759-.272-.297-.533-.586-.787-.863s-.482-.522-.68-.733c-.198-.213-.311-.337-.345-.374-.034-.04-.136-.173-.317-.4-.176-.228-.385-.489-.623-.783-.232-.295-.487-.606-.753-.94-.266-.331-.504-.611-.696-.842-.26-.305-.47-.392-.623-.262-.113.099-.102.224.022.376.085.095.193.238.318.425.13.187.237.374.334.56.373.708.113 1.488-.77 2.347-.216.213-.448.436-.691.667-.255.23-.595.534-1.036.909-.42.36-.985.842-1.687 1.448-.708.604-1.614 1.381-2.718 2.328l-5.039 4.317a893.957 893.957 0 0 1-3.685 3.135c-1.088.913-1.97 1.594-2.65 2.041a6.457 6.457 0 0 1-1.263.662c-.379.143-.719.094-1.019-.142zm20.795 23.978c-.51.225-.962.378-1.353.457-.396.082-.719-.02-.985-.303a3.298 3.298 0 0 1-.39-.42 3.805 3.805 0 0 1-.329-.463c-.107-.171-.226-.214-.35-.137-.17.104-.154.33.056.672.147.234.334.517.566.846.232.327.447.654.645.977.232.327.42.61.566.844.142.236.227.376.255.417.142.237.34.56.578.974s.526.943.866 1.59c.362.635.804 1.402 1.33 2.302.527.9 1.161 1.96 1.914 3.182.198.32.357.573.487.759.13.187.26.325.396.422a.69.69 0 0 0 .414.143c.147-.003.345-.039.605-.107.193-.06.465-.172.816-.322.345-.157.696-.315 1.058-.477.357-.16.68-.306.968-.438.284-.133.46-.22.527-.26.108-.067.21-.136.306-.212.102-.08.119-.17.056-.278-.079-.127-.3-.123-.662.007-.725.302-1.336.455-1.817.457-.487.003-.946-.154-1.382-.478-.43-.323-.85-.774-1.251-1.353a32.656 32.656 0 0 1-.997-1.51c-.486-.792-.843-1.443-1.07-1.954-.226-.51-.322-.958-.294-1.343a1.72 1.72 0 0 1 .464-1.042c.283-.305.697-.64 1.24-1.005l.997-.611c.492-.303 1.024-.634 1.602-.988.583-.354 1.138-.696 1.67-1.025.532-.332.946-.58 1.223-.753l2.82-1.738c.152-.09.271-.063.367.088.08.127.244.403.482.83.249.421.515.877.798 1.367.289.487.56.968.82 1.44.267.473.454.823.561 1.05.317.66.43 1.167.34 1.52-.096.35-.238.63-.436.842-.175.196-.34.35-.492.458a9.677 9.677 0 0 1-.487.32c-.193.122-.244.252-.153.404.068.107.175.127.328.063a2.76 2.76 0 0 0 .42-.213c.067-.039.18-.104.35-.192.164-.09.351-.19.566-.302.204-.12.42-.23.629-.346.21-.113.402-.21.589-.297.56-.286 1.002-.481 1.319-.589s.526-.195.634-.259c.175-.107.226-.214.158-.318-.05-.088-.288-.16-.707-.227a1.128 1.128 0 0 1-.68-.38c-.187-.209-.424-.492-.702-.853-.141-.177-.373-.52-.696-1.027a94.586 94.586 0 0 1-1.025-1.626l-.951-1.54c-.289-.473-.47-.762-.532-.867-.074-.13-.012-.259.204-.392l8.86-5.45c.215-.13.357-.134.436-.006.05.086.204.334.459.739.26.427.537.891.826 1.39.295.5.572.976.838 1.432.266.456.43.753.487.896.419.92.623 1.578.611 1.969-.01.389-.107.716-.3.98a2.431 2.431 0 0 1-.543.557c-.221.167-.385.28-.493.348-.277.173-.368.343-.26.512.04.066.107.091.204.075.09-.012.186-.033.288-.066.097-.031.25-.105.465-.22.203-.113.43-.229.668-.345.238-.119.458-.232.656-.338s.34-.187.425-.24c.476-.233.85-.387 1.11-.462.266-.074.453-.142.56-.208.193-.12.26-.222.21-.307a.483.483 0 0 0-.204-.184.984.984 0 0 1-.238-.167c-.243-.26-.583-.687-1.008-1.283-.119-.19-.413-.662-.894-1.418-.476-.753-.985-1.565-1.529-2.446-.526-.855-1.002-1.636-1.438-2.34-.424-.686-.65-1.06-.69-1.125l-.748-1.353c-.204-.38-.43-.77-.68-1.177-.248-.405-.486-.79-.707-1.155-.215-.343-.402-.46-.572-.356-.13.078-.147.206-.034.375.09.15.198.34.329.572.124.232.209.423.243.578.22.6.243 1.073.074 1.415-.176.343-.527.708-1.053 1.091-.244.18-.51.364-.787.554-.283.187-.674.43-1.167.736-.47.289-1.104.676-1.89 1.163-.793.49-1.812 1.116-3.047 1.876l-5.65 3.479c-1.54.947-2.921 1.787-4.139 2.52-1.211.731-2.185 1.269-2.927 1.603zm44.739 32.554c-.26-1.182-.6-2.332-1.037-3.459-.113-.28-.254-.628-.43-1.047-.175-.417-.35-.84-.526-1.269-.182-.43-.346-.81-.487-1.146-.142-.334-.232-.55-.266-.644a6.5 6.5 0 0 1-.17-.481c-.09-.274-.21-.608-.346-.998-.135-.39-.288-.81-.447-1.26-.164-.45-.317-.872-.475-1.272-.142-.375-.312-.526-.499-.453-.141.052-.175.174-.102.363.068.165.142.371.221.622.085.249.13.453.136.611.108.633.051 1.1-.181 1.404-.232.309-.645.6-1.234.885-.272.13-.566.263-.878.4-.311.13-.736.306-1.274.511-.515.203-1.206.468-2.072.804-.866.337-1.981.768-3.34 1.294l-6.188 2.394a589.214 589.214 0 0 1-4.518 1.73c-1.33.499-2.39.85-3.176 1.045a6.54 6.54 0 0 1-1.41.204c-.408.008-.708-.149-.912-.476a3.267 3.267 0 0 1-.311-.486 5.647 5.647 0 0 1-.244-.51c-.068-.19-.175-.256-.317-.202-.186.072-.21.295-.062.672.096.257.227.57.385.94.159.373.306.73.459 1.078.147.346.328.762.537 1.243.017.048.074.208.165.481.096.275.215.62.362 1.033l.487 1.366c.181.497.368.99.555 1.485.147.375.311.524.498.453.142-.054.175-.175.102-.362a11.25 11.25 0 0 1-.238-.736 8.79 8.79 0 0 1-.232-.903c-.136-.564-.062-.997.226-1.297.29-.3.68-.575 1.178-.82.713-.383 1.727-.839 3.046-1.361 1.32-.525 2.825-1.114 4.512-1.768l.844-.325c.187-.074.311-.026.374.138l1.602 4.35c.068.164.05.341-.028.536-.176.258-.397.603-.669 1.048-.277.443-.577.923-.917 1.443s-.69 1.07-1.058 1.645c-.374.575-.73 1.144-1.076 1.71-.946 1.524-1.716 2.802-2.293 3.836-.583 1.036-.934 2.004-1.036 2.91a4.67 4.67 0 0 0 .04 1.678c.118.575.367 1.354.741 2.339l.968 2.496c.13.325.232.541.312.644.085.104.18.133.294.087.142-.054.176-.186.09-.397a9.904 9.904 0 0 1-.425-1.411c-.1-.471-.14-1.13-.118-1.974.023-.847.357-1.94.99-3.292.703-1.458 1.58-3.078 2.645-4.86 1.059-1.79 2.236-3.764 3.521-5.931 2.061 1.007 3.873 1.57 5.441 1.69 1.568.121 3.012-.074 4.326-.58a5.673 5.673 0 0 0 1.585-.918 7.396 7.396 0 0 0 1.127-1.163c.3-.4.543-.799.724-1.194.187-.393.323-.726.402-1.002a7.63 7.63 0 0 0 .097-3.57zm-2.367 1.985c-.827 1.56-2.338 2.765-4.54 3.617-1.337.516-2.548.748-3.63.697-1.081-.051-1.953-.3-2.61-.748a3.445 3.445 0 0 1-1.053-1.087 8.204 8.204 0 0 1-.634-1.289 16.13 16.13 0 0 1-.708-2.292c-.17-.755-.226-1.293-.158-1.616a.483.483 0 0 1 .323-.408l11.493-4.45c.21-.082.385-.04.532.12.113.168.283.455.492.86.21.402.42.875.629 1.412.736 1.898.69 3.625-.136 5.184zm-400.01 229.072a25.66 25.66 0 0 1 1.491-.371 9.18 9.18 0 0 1 1.034-.17c.274-.028.498-.031.672-.006a2.214 2.214 0 0 1 1.302.66c.224.24.368.405.439.492.161.215.306.275.43.182s.074-.295-.158-.598a17.91 17.91 0 0 0-.491-.623c-.179-.215-.35-.424-.514-.622-.166-.201-.312-.371-.433-.516a10.384 10.384 0 0 1-.227-.271c-.122-.162-.37-.518-.744-1.065a37.806 37.806 0 0 0-1.17-1.625c-.3-.396-.518-.537-.662-.43-.106.082-.085.221.065.42.108.14.228.31.363.506.133.192.232.39.3.591.038.199.017.366-.065.499a1.214 1.214 0 0 1-.286.32c-.126.096-.296.19-.507.277-.212.09-.447.175-.696.252-.402.139-1.045.351-1.925.637-.88.289-1.901.603-3.06.951-1.161.343-2.41.702-3.743 1.079-1.332.379-2.644.744-3.933 1.104-1.293.362-2.511.693-3.66.996-1.146.311-2.12.569-2.916.778l9.83-15.558c.368-.591.696-1.107.98-1.548.285-.439.519-.728.697-.864.09-.07.2-.116.333-.147.13-.028.288 0 .467.088.148.085.308.22.484.413.172.193.314.363.424.504.133.181.264.221.388.125.128-.094.006-.382-.358-.86a34.14 34.14 0 0 0-1.199-1.501 29.517 29.517 0 0 1-.773-.937c-.067-.088-.178-.246-.332-.467l-.542-.77-.685-.96c-.25-.345-.496-.682-.74-1.002-.353-.464-.59-.651-.715-.552-.125.093-.135.21-.026.354.068.09.171.235.312.442.14.2.257.421.353.66.105.285.184.545.241.786.054.244.06.49.017.75-.045.255-.13.54-.26.852a8.64 8.64 0 0 1-.598 1.11l-11.462 19.032c-.454.738-.753 1.254-.897 1.545-.144.292-.156.518-.034.68.096.124.328.147.7.059.371-.082 1.103-.24 2.193-.476.892-.198 2.26-.532 4.1-.999 1.842-.467 4.058-1.036 6.649-1.701 1.08-.286 2.137-.56 3.176-.827a169.28 169.28 0 0 0 2.853-.747c.865-.235 1.605-.428 2.22-.583a28.755 28.755 0 0 0 1.298-.348zm20.374 16.438c.128.13.238.147.333.048.126-.127.06-.317-.194-.569a23.705 23.705 0 0 0-.655-.625c-.265-.25-.52-.482-.766-.714l-.658-.606a9.555 9.555 0 0 1-.336-.305 167.22 167.22 0 0 0-.92-.982c-.232-.244-.478-.507-.741-.782-.264-.277-.49-.51-.683-.702-.254-.249-.444-.314-.571-.187-.095.096-.08.21.048.334a5.17 5.17 0 0 1 .648.833c.382.6.212 1.316-.514 2.142-.174.207-.36.422-.567.646s-.49.518-.852.886c-.347.35-.813.824-1.399 1.407l-2.248 2.276-4.166 4.21a576.198 576.198 0 0 1-3.056 3.06c-.9.894-1.635 1.565-2.204 2.012-.396.303-.753.53-1.079.682-.324.15-.63.133-.917-.054a3.325 3.325 0 0 1-.429-.285 3.703 3.703 0 0 1-.383-.332c-.126-.124-.238-.141-.333-.045-.126.127-.06.32.194.572.175.173.393.382.657.625.263.247.518.482.764.711.25.23.467.43.657.603.192.173.304.277.335.309.034.03.138.141.313.33.173.19.4.428.67.711.27.286.57.598.897.937.325.337.658.674.99 1.005.257.252.447.317.574.187.096-.09.078-.207-.048-.328a12.989 12.989 0 0 1-.467-.51 7.467 7.467 0 0 1-.515-.657c-.32-.41-.417-.79-.292-1.138.125-.35.345-.716.66-1.098.441-.575 1.105-1.313 1.988-2.222a512.3 512.3 0 0 1 3.03-3.086l4.168-4.212c.917-.923 1.665-1.681 2.25-2.273.586-.586 1.05-1.059 1.397-1.407.364-.368.655-.657.876-.863.22-.207.436-.397.64-.572.443-.385.83-.623 1.163-.722.332-.096.691-.02 1.073.235.174.107.309.2.405.28.095.082.183.159.263.235zm19.857 16.314c-.32-.23-.635-.453-.947-.677-.311-.22-.586-.416-.824-.58-.24-.17-.376-.263-.413-.294a13.767 13.767 0 0 1-.35-.286l-.731-.597c-.29-.233-.6-.485-.932-.75a34.966 34.966 0 0 0-.954-.742c-.286-.221-.485-.258-.593-.114-.08.108-.05.216.092.323.128.096.28.221.459.368.181.153.313.289.393.408.378.427.55.81.518 1.15-.034.342-.21.758-.526 1.25a26.2 26.2 0 0 1-1.207 1.701c-.298.394-.698.924-1.2 1.583l-1.933 2.548-3.58 4.716a427.994 427.994 0 0 1-2.628 3.437c-.775 1.002-1.417 1.766-1.922 2.281-.354.351-.678.629-.98.818-.302.196-.608.215-.916.068a3.462 3.462 0 0 1-.465-.223 4.041 4.041 0 0 1-.422-.28c-.142-.111-.254-.111-.335 0-.108.14-.02.322.265.537.198.15.437.323.722.524.283.204.566.396.849.583.266.204.508.38.719.524.214.15.345.24.399.283.393.3.801.614 1.224.951.422.331.905.733 1.451 1.203.558.453 1.189.963 1.888 1.52.702.56 1.536 1.206 2.501 1.94.358.271.647.475.865.614.218.138.402.22.55.246a.599.599 0 0 0 .39-.04c.113-.054.258-.144.433-.266.202-.156.43-.354.687-.594l.754-.72c.249-.231.464-.447.644-.65.18-.201.297-.337.352-.408.203-.269.25-.445.145-.527-.128-.096-.295-.04-.504.167-.23.221-.518.44-.875.649-.357.21-.705.35-1.046.43-.618.15-1.238.045-1.855-.311a18.906 18.906 0 0 1-1.999-1.345 22.836 22.836 0 0 1-1.297-1.047 10.92 10.92 0 0 1-.83-.802 2.64 2.64 0 0 1-.446-.63c-.09-.199-.15-.392-.177-.581-.074-.42.214-1.133.862-2.135.645-1.002 1.715-2.485 3.207-4.452l3.62-4.773c.788-1.036 1.433-1.886 1.934-2.548.504-.657.903-1.186 1.203-1.58.312-.413.562-.733.753-.968.193-.237.381-.45.56-.654.389-.436.742-.724 1.057-.866.32-.139.702-.096 1.149.133.188.085.368.19.546.309.179.119.309.212.4.28.141.108.254.11.336.003.108-.142.02-.326-.266-.54-.196-.15-.456-.338-.774-.567zm27.24 17.661a39.487 39.487 0 0 0-.847-.452l-1.03-.533-.9-.464c-.261-.13-.411-.207-.45-.23-.04-.022-.168-.098-.388-.234-.221-.139-.49-.297-.807-.487a70.747 70.747 0 0 0-2.078-1.217c-.314-.173-.515-.182-.603-.029-.065.12-.02.221.139.309a16 16 0 0 1 .506.303c.199.124.349.24.443.342.435.374.661.728.676 1.07.017.343-.1.779-.344 1.308-.11.25-.235.507-.373.779-.137.269-.334.628-.583 1.081-.238.43-.562 1.008-.965 1.735l-1.554 2.794-2.882 5.175a409.716 409.716 0 0 1-2.115 3.774c-.628 1.1-1.155 1.944-1.58 2.527a6.148 6.148 0 0 1-.857.949c-.27.235-.57.297-.897.192a2.725 2.725 0 0 1-.49-.158 3.72 3.72 0 0 1-.457-.213c-.157-.087-.27-.073-.336.043-.086.158.029.325.342.498.216.122.476.26.786.42.31.16.618.308.922.458.294.161.558.303.788.416.231.116.375.187.435.223.43.241.88.496 1.344.768.466.271 1 .6 1.606.988.617.37 1.313.784 2.086 1.237.771.455 1.688.98 2.749 1.57.39.216.704.38.94.485.237.107.43.158.581.17a.613.613 0 0 0 .38-.097c.104-.073.234-.178.391-.322.179-.184.378-.414.598-.688l.645-.818c.213-.266.394-.51.544-.736.151-.227.249-.377.291-.453.164-.295.187-.476.071-.54-.139-.075-.297.002-.48.234-.192.255-.447.51-.77.764-.324.255-.647.45-.976.575-.59.235-1.219.224-1.88-.045a19.353 19.353 0 0 1-2.168-1.05 25.604 25.604 0 0 1-1.433-.855 12.296 12.296 0 0 1-.934-.674 2.696 2.696 0 0 1-.53-.566 2.053 2.053 0 0 1-.258-.55c-.132-.404.05-1.152.552-2.23.5-1.084 1.35-2.704 2.55-4.86l2.912-5.238c.632-1.135 1.15-2.066 1.555-2.79l.964-1.739c.25-.45.456-.804.613-1.064.157-.26.311-.504.46-.725.324-.487.633-.824.927-1.008.294-.181.68-.192 1.155-.031.198.06.394.136.583.226.193.097.337.17.436.227.156.088.27.07.334-.051.088-.153-.027-.32-.34-.493zm34.071 15.086a.7.7 0 0 1-.256.008c-.319-.048-.788-.17-1.414-.362-.187-.07-.655-.243-1.404-.518-.747-.275-1.55-.575-2.41-.903-.837-.323-1.601-.614-2.292-.88a177.41 177.41 0 0 0-1.101-.42l-1.266-.557a20.567 20.567 0 0 0-1.118-.467c-.4-.153-.775-.295-1.132-.433-.336-.128-.535-.105-.599.06-.05.124.01.22.177.285.147.054.328.13.546.227.216.096.378.186.487.274.484.309.759.629.821.965.065.337.012.787-.153 1.348a26.2 26.2 0 0 1-.261.818c-.098.286-.24.668-.424 1.152-.178.462-.413 1.079-.71 1.854-.296.779-.678 1.772-1.144 2.987l-2.12 5.531a536.013 536.013 0 0 1-1.561 4.034c-.466 1.178-.865 2.09-1.208 2.726a5.92 5.92 0 0 1-.71 1.059c-.237.274-.525.38-.864.323a3.461 3.461 0 0 1-.506-.088 3.843 3.843 0 0 1-.484-.147c-.167-.065-.275-.034-.323.09-.062.17.07.314.406.445.23.087.518.187.86.294.345.108.673.22.987.34.346.11.63.206.86.294.233.09.369.142.408.159a34.387 34.387 0 0 1 2.418 1.033 142.982 142.982 0 0 0 5.275 2.126c.313.119.568.212.759.272.194.065.364.093.508.087a.602.602 0 0 0 .374-.127c.102-.082.226-.212.368-.396.107-.153.24-.38.404-.677.162-.297.326-.603.492-.909.167-.308.314-.591.448-.84.13-.25.21-.405.232-.47.041-.105.077-.207.105-.32.028-.108-.008-.181-.11-.22-.128-.052-.28.073-.465.361-.356.61-.702 1.048-1.044 1.311-.341.269-.755.402-1.239.41-.48.01-1.024-.087-1.62-.28-.602-.192-1.11-.37-1.529-.532-.776-.297-1.381-.563-1.817-.804-.438-.235-.75-.5-.94-.79a1.5 1.5 0 0 1-.234-.99c.033-.374.146-.835.333-1.387.062-.17.19-.493.37-.974.188-.484.389-1.005.604-1.574.218-.564.426-1.11.627-1.634l.457-1.194 1.06-2.763c.055-.15.157-.193.304-.139.126.048.391.159.796.323.405.17.84.345 1.308.538.467.19.92.385 1.364.574.442.196.766.343.965.445.585.297.939.592 1.065.892.124.303.174.58.15.835-.018.232-.051.43-.102.591a7.029 7.029 0 0 1-.17.493c-.072.187-.034.314.112.37.105.037.192-.005.266-.135a2.89 2.89 0 0 0 .183-.38c.025-.062.07-.17.141-.322l.237-.524c.086-.195.172-.393.261-.583a6.86 6.86 0 0 1 .255-.535c.244-.507.449-.883.616-1.132.168-.25.27-.425.311-.53.064-.167.044-.274-.06-.311-.086-.031-.294.042-.629.226-.21.11-.439.145-.686.1a14.982 14.982 0 0 1-.959-.227c-.196-.051-.549-.167-1.056-.348a71.64 71.64 0 0 1-1.609-.6c-.545-.21-1.049-.4-1.507-.575-.462-.178-.745-.289-.85-.328-.124-.049-.15-.176-.068-.385l3.321-8.674c.082-.212.184-.289.311-.24.082.03.323.121.722.274.42.158.866.337 1.345.532s.935.382 1.371.563c.435.179.715.303.831.371.797.428 1.3.782 1.503 1.062.204.283.309.572.32.86.012.221-.017.453-.085.688-.068.241-.121.414-.161.516-.103.274-.072.444.095.506.064.023.124.006.185-.056.058-.06.115-.128.167-.204.054-.077.123-.212.21-.41.088-.19.182-.394.289-.606a19.901 19.901 0 0 0 .454-1c.21-.422.388-.733.536-.928a2.07 2.07 0 0 0 .28-.453c.073-.19.067-.297-.016-.331a.403.403 0 0 0-.244-.02zm62.724 18.072a13.715 13.715 0 0 0-1.073-1.63c-.905-1.125-1.932-2.01-3.084-2.656a16.444 16.444 0 0 0-3.542-1.48 20.884 20.884 0 0 0-3.498-.705 269.926 269.926 0 0 0-2.928-.31 63.22 63.22 0 0 0-1.51-.132 220.667 220.667 0 0 0-2.433-.173c-.303-.02-.5-.034-.589-.042-.045-.006-.194-.023-.45-.06-.257-.04-.567-.079-.934-.127-.368-.051-.764-.1-1.186-.153s-.824-.1-1.203-.133c-.358-.04-.546.034-.563.212-.015.133.069.213.249.227.155.014.35.04.583.076.233.034.415.08.543.139.548.167.896.405 1.046.71.149.309.218.756.206 1.342a19.21 19.21 0 0 1-.034.858c-.02.303-.054.71-.105 1.223-.05.492-.116 1.15-.196 1.976-.082.83-.19 1.888-.317 3.184l-.583 5.894a537.54 537.54 0 0 1-.444 4.303c-.139 1.26-.286 2.242-.447 2.947-.114.487-.25.889-.407 1.209-.155.325-.406.504-.746.538a2.945 2.945 0 0 1-.513.048 3.617 3.617 0 0 1-.504-.015c-.18-.017-.275.043-.288.176-.02.176.15.283.509.32.244.025.547.042.907.057.36.014.706.036 1.042.07.36.012.66.031.905.054.248.028.394.04.44.045.086.009.384.06.895.153.508.096 1.131.207 1.861.32.711.116 1.484.24 2.316.368.832.125 1.605.224 2.321.3 1.43.142 2.704.136 3.823-.011 1.117-.15 2.11-.377 2.977-.685.863-.309 1.605-.657 2.216-1.048.615-.39 1.119-.758 1.515-1.104a12.767 12.767 0 0 0 1.526-1.574c.498-.603.955-1.282 1.368-2.046.415-.756.769-1.597 1.06-2.514.298-.917.496-1.9.6-2.95.1-1.005.103-1.942.008-2.805a12.394 12.394 0 0 0-.49-2.4 10.503 10.503 0 0 0-.85-1.996zm-1.786 7.94c-.078.781-.21 1.549-.398 2.293-.187.75-.432 1.46-.736 2.143a11.715 11.715 0 0 1-1.048 1.877 7.048 7.048 0 0 1-1.293 1.427 10.271 10.271 0 0 1-3.796 1.956 12 12 0 0 1-4.483.365 22.585 22.585 0 0 1-2.484-.363c-.672-.147-1.22-.305-1.642-.486-.422-.176-.744-.357-.962-.535a1.928 1.928 0 0 1-.473-.521c-.06-.097-.1-.244-.125-.45a5.345 5.345 0 0 1-.034-.68l.009-.761c.001-.26.014-.487.034-.688.014-.159.04-.462.073-.906.034-.447.075-.996.13-1.645.052-.65.118-1.378.199-2.18.08-.803.163-1.653.253-2.544l.412-4.156.201-2.041.204-2.041c.065-.674.131-1.271.195-1.806.065-.538.11-.951.142-1.24.034-.334.187-.544.467-.631.068-.014.188-.031.36-.048s.369-.023.595-.026c.225 0 .445.009.658.014.213.012.41.023.586.04 1.005.102 1.99.24 2.953.413.965.176 1.89.442 2.778.801.89.36 1.746.833 2.566 1.421.821.59 1.58 1.334 2.282 2.24.299.39.612.866.937 1.426.328.564.62 1.215.875 1.95.253.737.439 1.55.552 2.438.116.889.12 1.874.013 2.944zm37.032 6.568c-.134.008-.222.18-.267.523-.067.7-.198 1.243-.397 1.63-.2.383-.518.683-.954.89-.434.21-.965.348-1.59.427-.625.077-1.16.13-1.608.159-.827.053-1.492.065-1.988.034-.495-.034-.891-.145-1.186-.326a1.5 1.5 0 0 1-.625-.801c-.125-.354-.22-.818-.28-1.398l-.071-1.042c-.034-.513-.071-1.073-.114-1.679l-.116-1.746a218.25 218.25 0 0 0-.087-1.277l-.199-2.955c-.01-.156.064-.241.221-.252l.858-.04c.437-.014.909-.037 1.412-.062.504-.023.997-.034 1.481-.048a27.1 27.1 0 0 1 1.062-.003c.653.022 1.1.147 1.34.365s.4.45.484.69c.084.221.135.414.159.584.02.167.04.34.052.52.013.199.098.292.255.287.11-.009.174-.088.187-.233a3.06 3.06 0 0 0 .005-.424 4.34 4.34 0 0 1-.007-.351c-.001-.173-.001-.36-.004-.575l-.01-.642c-.004-.21 0-.408.01-.59.008-.56.034-.99.082-1.287s.068-.499.062-.609c-.014-.181-.076-.266-.187-.26-.09.005-.247.164-.475.47-.145.19-.337.317-.58.376-.244.065-.567.13-.966.201-.2.037-.569.08-1.104.127-.538.043-1.11.091-1.712.13-.584.04-1.121.077-1.613.108-.494.031-.795.054-.905.06-.135.01-.209-.097-.225-.323l-.623-9.265c-.014-.224.045-.34.178-.351.09-.006.348-.02.773-.051.447-.031.93-.057 1.446-.082.516-.023 1.008-.043 1.478-.065.473-.02.776-.023.912-.012.903.057 1.504.164 1.81.337.303.17.52.388.651.648.102.193.173.416.212.657.039.246.061.425.07.538.02.291.119.43.297.416.068-.006.116-.045.144-.127.029-.08.051-.165.068-.255.014-.094.021-.244.017-.459 0-.212 0-.439.007-.676a17.534 17.534 0 0 0-.005-1.096c.012-.47.045-.826.094-1.067.054-.24.075-.416.067-.53-.013-.2-.065-.3-.154-.29a.416.416 0 0 0-.23.081.76.76 0 0 1-.229.116c-.308.09-.787.179-1.432.263-.203.015-.7.054-1.492.122-.796.063-1.65.125-2.57.187-.895.06-1.713.113-2.45.167-.718.048-1.109.074-1.175.076l-1.382.029a20.35 20.35 0 0 0-1.21.045l-1.212.082c-.356.026-.529.125-.518.306.009.133.102.195.28.181.16-.008.356-.017.592-.02.235-.005.422.009.558.046.568.073.951.249 1.15.532.199.277.34.707.424 1.282.04.269.075.555.107.858.032.297.066.708.1 1.22.034.495.076 1.158.133 1.984l.215 3.188.396 5.91c.109 1.614.201 3.052.273 4.318.075 1.268.092 2.261.05 2.98a5.91 5.91 0 0 1-.204 1.263c-.1.345-.314.56-.645.651-.156.054-.32.102-.499.136a4.405 4.405 0 0 1-.5.068c-.18.008-.264.082-.256.215.012.181.196.258.555.238.247-.02.547-.051.906-.096.355-.049.702-.08 1.04-.102.353-.051.656-.08.904-.097.244-.017.389-.028.434-.03.246-.018.583-.032 1.01-.049.425-.02.963-.028 1.617-.028.651-.02 1.44-.051 2.372-.09.929-.04 2.033-.103 3.31-.188.336-.025.602-.048.805-.073.2-.026.365-.068.495-.136a.609.609 0 0 0 .286-.27c.06-.115.118-.288.169-.514.032-.184.058-.448.082-.784.02-.34.044-.683.065-1.034.021-.348.04-.665.055-.945.016-.283.018-.459.016-.527a3.352 3.352 0 0 0-.041-.334c-.017-.11-.083-.161-.196-.155zm69.448-12.682c-.22.062-.48.121-.792.18-.43.072-1.014.08-1.767.026s-1.72-.388-2.898-1.008a57.75 57.75 0 0 1-4.24-2.55c-1.552-1.014-3.268-2.14-5.153-3.374.98-1.8 1.551-3.397 1.721-4.79.17-1.396.051-2.69-.35-3.878a4.948 4.948 0 0 0-.754-1.45 6.47 6.47 0 0 0-.996-1.05 5.83 5.83 0 0 0-1.036-.696 7.117 7.117 0 0 0-.878-.4 6.801 6.801 0 0 0-3.182-.217 20.375 20.375 0 0 0-3.125.79c-.26.084-.577.195-.957.336-.373.139-.758.28-1.15.425-.39.144-.74.272-1.04.385-.307.116-.5.19-.584.218-.045.014-.193.056-.442.127-.243.074-.543.164-.9.27-.356.11-.736.226-1.143.353-.408.125-.793.249-1.155.37-.34.117-.482.258-.42.428.04.125.148.162.318.102.147-.048.334-.105.56-.17.227-.062.413-.099.555-.099.566-.073.985 0 1.246.221.266.215.51.597.741 1.135.108.25.215.515.323.798s.243.669.408 1.158c.158.467.368 1.096.634 1.88.266.79.605 1.797 1.024 3.029l1.897 5.613a676.6 676.6 0 0 1 1.365 4.102c.396 1.209.668 2.163.81 2.87.095.49.135.912.13 1.275-.012.353-.165.62-.46.792-.135.09-.282.181-.447.258-.164.079-.317.144-.47.192-.17.057-.232.15-.186.278.056.172.255.198.594.082.238-.077.521-.181.855-.306.334-.125.663-.25.98-.365.311-.122.69-.263 1.132-.436.04-.014.187-.057.436-.13.249-.071.56-.164.934-.28.374-.114.787-.244 1.24-.386a61.34 61.34 0 0 0 1.342-.433c.34-.116.481-.254.424-.43-.045-.124-.147-.161-.317-.102-.153.048-.373.113-.668.19-.294.073-.566.13-.81.167-.515.102-.894.02-1.154-.252-.255-.269-.482-.629-.685-1.081-.312-.652-.68-1.577-1.093-2.775a519.185 519.185 0 0 1-1.404-4.093l-.255-.764c-.057-.17-.017-.28.136-.332l3.946-1.26c.142-.05.306-.03.476.052.22.164.52.373.906.634.385.26.803.555 1.256.877.453.317.929.654 1.421 1.008.499.351.997.697 1.49 1.028a89.122 89.122 0 0 0 3.334 2.194c.9.56 1.75.905 2.548 1.036.487.099.985.107 1.506.028.515-.08 1.223-.272 2.112-.572l2.264-.764c.3-.102.493-.187.59-.255.095-.065.124-.153.09-.26-.046-.128-.159-.159-.351-.094a8.877 8.877 0 0 1-.482.145zm-15.886-7.264a3 3 0 0 1-1.014.891c-.396.218-.786.391-1.171.524-.702.235-1.393.416-2.073.54-.685.12-1.166.148-1.449.08a.441.441 0 0 1-.351-.308l-3.522-10.426c-.067-.193-.022-.349.125-.47.159-.1.419-.235.787-.405.368-.176.798-.343 1.285-.51 1.721-.58 3.261-.472 4.62.326 1.359.793 2.378 2.194 3.052 4.19.407 1.211.571 2.301.48 3.266-.09.966-.344 1.73-.77 2.302zm42.887-7.239c-.12-.322-.232-.645-.357-.976a52.855 52.855 0 0 0-.328-.89 9.09 9.09 0 0 0-.193-.489c-.056-.096-.113-.195-.175-.289-.057-.093-.142-.116-.238-.062-.12.065-.13.255-.034.589.215.665.311 1.217.283 1.647a1.985 1.985 0 0 1-.515 1.198c-.317.368-.748.71-1.285 1.03-.544.317-1.014.58-1.41.787-.736.382-1.342.657-1.812.83-.47.164-.872.223-1.217.172-.34-.048-.64-.21-.895-.48-.254-.273-.526-.666-.815-1.17-.08-.161-.243-.47-.481-.928-.238-.46-.493-.957-.776-1.492-.277-.538-.543-1.06-.804-1.554-.26-.499-.453-.878-.589-1.136l-1.364-2.63c-.074-.138-.04-.243.102-.316.119-.063.374-.187.77-.377.39-.195.815-.402 1.268-.626.453-.22.9-.433 1.336-.64.442-.198.765-.339.974-.427.606-.238 1.064-.306 1.376-.2.306.107.549.251.719.444.164.167.289.32.38.467.084.144.169.294.248.453.096.184.215.235.351.161.102-.051.125-.147.08-.289a2.501 2.501 0 0 0-.165-.385c-.028-.06-.079-.167-.147-.322s-.147-.329-.232-.524c-.09-.195-.181-.388-.266-.583a6.262 6.262 0 0 1-.227-.547c-.22-.518-.368-.922-.441-1.211-.074-.292-.136-.487-.187-.583-.085-.162-.176-.216-.277-.165-.08.043-.159.25-.244.623a1.032 1.032 0 0 1-.385.578c-.198.153-.464.342-.804.569-.17.113-.487.297-.962.557-.47.258-.98.527-1.512.801-.52.272-.996.519-1.438.748-.436.226-.708.368-.804.419-.119.062-.232-.006-.334-.207l-4.28-8.243c-.102-.198-.096-.334.022-.397a90.989 90.989 0 0 1 1.982-1.005c.459-.226.906-.444 1.33-.65a8.19 8.19 0 0 1 .827-.374c.85-.314 1.45-.456 1.795-.42.345.035.628.148.855.332.17.139.328.311.458.52.136.213.227.363.278.465.136.258.283.346.441.263.063-.03.085-.09.08-.172a1.512 1.512 0 0 0-.04-.266 3.43 3.43 0 0 0-.164-.428c-.09-.19-.176-.399-.266-.62-.09-.215-.176-.419-.26-.606a4.694 4.694 0 0 0-.188-.393c-.175-.442-.288-.781-.334-1.022a2.343 2.343 0 0 0-.152-.51c-.091-.175-.182-.246-.26-.206a.424.424 0 0 0-.176.17.71.71 0 0 1-.165.195c-.249.207-.65.481-1.205.818-.182.096-.623.329-1.325.705-.702.377-1.461.778-2.276 1.203-.799.413-1.523.79-2.18 1.13-.634.334-.985.512-1.047.543l-1.252.575a23.61 23.61 0 0 0-1.092.53l-1.076.557c-.317.167-.436.331-.357.487.063.121.176.138.334.056.142-.07.317-.158.533-.257.215-.097.39-.159.532-.179.549-.161.968-.152 1.262.023.295.178.595.515.906 1.01a28.033 28.033 0 0 1 1.02 1.823c.226.437.531 1.025.91 1.761l1.478 2.84 2.73 5.26a700.3 700.3 0 0 1 1.975 3.844c.572 1.13.985 2.035 1.24 2.712.164.472.272.88.317 1.237.045.356-.062.642-.334.854a4.106 4.106 0 0 1-.832.586c-.164.083-.21.185-.147.303.085.159.283.156.6-.008.22-.116.487-.263.792-.45.306-.184.612-.354.912-.51.306-.187.572-.334.793-.447.215-.116.345-.181.385-.201.22-.113.52-.266.905-.45.385-.187.872-.408 1.472-.671.59-.28 1.303-.623 2.14-1.033a174.39 174.39 0 0 0 2.956-1.498c.3-.153.532-.283.708-.388a1.57 1.57 0 0 0 .402-.32.595.595 0 0 0 .152-.362c.012-.13-.01-.311-.056-.546a6.843 6.843 0 0 0-.232-.745zm25.466-15.026c-.125.091-.323.213-.583.371-.26.153-.504.28-.73.385-.465.244-.856.27-1.178.08-.323-.187-.64-.468-.963-.844-.481-.54-1.093-1.328-1.823-2.364a341.977 341.977 0 0 1-2.485-3.535l-3.386-4.861c-.747-1.067-1.353-1.945-1.829-2.624l-1.138-1.63c-.294-.425-.52-.762-.685-1.02a16.285 16.285 0 0 1-.453-.73c-.294-.504-.458-.929-.492-1.274-.04-.345.102-.68.419-1.01.141-.153.26-.27.35-.352a7.55 7.55 0 0 1 .284-.215c.147-.099.18-.206.102-.32-.102-.147-.3-.113-.595.088-.198.144-.447.32-.736.535a79.98 79.98 0 0 0-.832.623c-.272.204-.51.38-.713.538-.21.155-.329.243-.363.272-.04.028-.164.107-.385.249-.22.135-.47.297-.753.48-.283.185-.583.377-.9.587-.323.207-.589.39-.81.546-.294.204-.39.38-.288.527.073.11.187.116.334.011.09-.06.226-.141.407-.24.176-.097.351-.182.527-.247.662-.266 1.33.028 2.015.895.17.206.351.433.533.676.18.24.424.575.713 1 .283.402.662.945 1.138 1.624.476.683 1.081 1.56 1.829 2.627l3.385 4.86a473.583 473.583 0 0 1 2.457 3.56c.714 1.044 1.24 1.89 1.58 2.53.227.442.385.838.476 1.183.09.348.017.646-.221.892-.102.127-.221.252-.357.37a4.39 4.39 0 0 1-.39.318c-.153.102-.187.21-.108.32.102.144.3.119.594-.088.204-.142.448-.317.736-.532.29-.215.567-.425.838-.626l.714-.538c.204-.153.322-.243.362-.271.04-.026.164-.108.38-.247.22-.136.492-.317.82-.53s.691-.452 1.082-.712c.396-.258.787-.524 1.172-.796.294-.204.39-.38.288-.526-.079-.11-.186-.114-.34-.015zm40.056-35.382c-.125.128-.34.32-.634.578-.3.257-.68.503-1.144.736-.334.167-.68.232-1.036.186a3.28 3.28 0 0 1-1.02-.3 6.76 6.76 0 0 1-.933-.546 7.78 7.78 0 0 1-.799-.631l-16.033-13.229c-.47-.39-.782-.512-.923-.37-.13.124-.125.373.011.738l7.66 22.044-22.148-7.98c-.351-.13-.589-.133-.713-.006-.148.139-.097.365.158.688l13.571 17.412c.408.513.753 1.017 1.042 1.504.283.486.266.965-.057 1.44a7.5 7.5 0 0 1-.362.468 5.134 5.134 0 0 1-.289.308c-.164.156-.204.272-.125.354.142.141.346.085.618-.181.164-.159.345-.34.549-.555.198-.21.396-.419.589-.62.192-.204.368-.388.515-.555.153-.164.255-.269.306-.317.045-.045.147-.141.31-.28a192.721 192.721 0 0 0 1.29-1.16c.25-.227.489-.45.71-.672.288-.28.362-.495.226-.64-.08-.082-.181-.053-.311.068a6.087 6.087 0 0 1-1.036.773c-.21.142-.442.193-.703.17a1.036 1.036 0 0 1-.65-.306 64.383 64.383 0 0 0-.612-.628 8.124 8.124 0 0 1-.56-.628l-9.937-12.125.102-.093c.159.065.493.198 1.002.405.515.203 1.116.438 1.812.702s1.432.546 2.214.852c.781.3 1.517.58 2.202.835l1.766.657.878.32c.09.033.493.17 1.195.407.702.238 1.506.515 2.406.83.9.316 1.795.625 2.678.942.883.312 1.545.535 1.987.665.651.218 1.093.354 1.342.414.243.056.407.048.487-.032.113-.107.13-.283.056-.52-.079-.241-.243-.75-.504-1.532l-6.301-18.29.068-.07 13.276 11.314c.25.193.453.382.595.566.153.184.204.315.153.394-.096.13-.096.24-.006.337.062.062.153.068.278.014.118-.057.328-.198.634-.433.243-.204.566-.487.973-.855.414-.368.833-.747 1.269-1.138a108.344 108.344 0 0 0 1.925-1.783c.147-.142.249-.275.317-.402.062-.125.056-.227-.023-.306-.08-.082-.181-.06-.311.062zm16.373-27.232a6.783 6.783 0 0 0-.945-1.22 7.537 7.537 0 0 0-.912-.804 8.9 8.9 0 0 0-1.687-.968 6.187 6.187 0 0 0-1.942-.47c-.72-.06-1.54-.029-2.457.099-.923.121-1.987.356-3.205.696l-1.149.331c-.985.286-1.829.501-2.536.637-.708.142-1.33.213-1.857.218a4.018 4.018 0 0 1-1.41-.206 4.513 4.513 0 0 1-1.183-.629c-1.003-.722-1.546-1.605-1.637-2.655-.09-1.042.21-2.038.89-2.987.446-.617.882-1.092 1.301-1.424.42-.334.804-.574 1.161-.721.357-.145.657-.221.917-.233.255-.008.43-.002.532.012.21.014.487.096.833.249s.611.28.787.38a2.3 2.3 0 0 0 .294.132c.08.029.153-.005.215-.096.09-.127-.068-.34-.487-.64-.928-.67-1.613-1.192-2.05-1.565-.435-.371-.69-.58-.764-.634-.13-.09-.26-.046-.39.136-.08.11-.176.226-.295.348a8.524 8.524 0 0 1-.532.51c-.34.277-.68.605-1.019.982-.345.376-.702.829-1.087 1.356-.628.874-1.076 1.743-1.336 2.604-.26.863-.351 1.696-.272 2.505.085.804.329 1.557.742 2.253.407.7.98 1.308 1.704 1.835a7.48 7.48 0 0 0 1.489.84c.515.224 1.115.377 1.783.462.674.085 1.427.082 2.27-.003.833-.088 1.818-.277 2.94-.574l1.896-.501c.917-.227 1.71-.4 2.389-.519a8.895 8.895 0 0 1 1.846-.141c.549.023 1.058.122 1.528.297.47.173.946.43 1.416.77.436.314.815.71 1.132 1.192.317.478.532 1 .64 1.56.107.56.09 1.169-.046 1.817-.135.648-.441 1.3-.911 1.956-.328.45-.702.86-1.115 1.226a5.16 5.16 0 0 1-1.354.872 3.775 3.775 0 0 1-1.54.323c-.537-.003-1.104-.134-1.692-.394a4.973 4.973 0 0 1-.606-.337 9.888 9.888 0 0 1-.459-.306c-.204-.147-.35-.152-.441-.028-.09.127 0 .303.283.535l1.03.87c.481.404 1.07.851 1.761 1.352.362.26.617.42.764.465.142.05.334.008.572-.128a8.125 8.125 0 0 0 1.851-1.359c.555-.54 1.065-1.13 1.523-1.763.538-.748.974-1.537 1.314-2.372a6.89 6.89 0 0 0 .515-2.576 6.02 6.02 0 0 0-.272-1.96 7.344 7.344 0 0 0-.73-1.607z" fill="#6e1744"/></svg>